M48
;Layer_Color=6321
;FILE_FORMAT=2:4
INCH,TZ
;TYPE=PLATED
T1F00S00C0.0079
T2F00S00C0.0118
T3F00S00C0.0240
T4F00S00C0.0276
T5F00S00C0.0280
T7F00S00C0.0315
T8F00S00C0.0591
;TYPE=NON_PLATED
T9F00S00C0.1181
%
T01
X17677Y26732
X18307
X11142Y26969
X11339Y27244
X10551Y26969
X5118Y27244
X4724Y26890
X4094
T02
X16378Y26476
X16811
Y26909
X16378
Y27343
Y27776
X16811
Y27343
X17244
Y27776
Y26909
Y26476
X18583Y27047
X24085Y27165
X10118Y27146
Y26713
X9685
Y27146
X9252
Y26713
Y27579
X9685
Y28012
X9252
X10118
Y27579
X3661Y27500
Y27933
X3228
X2795
Y27500
X3228
Y27067
X2795
Y26634
X3228
X3661
Y27067
X1623Y27667
X1240Y27717
X2610Y28740
X4390Y29469
X6900Y33248
X7569
X8159
X7825Y34370
X14313Y35571
Y39232
X14112Y40883
X14830Y40864
X15037Y42104
X14938Y42635
X14761Y43129
X12530Y43120
X8425Y41654
X15817Y39449
X16250
X16841Y39370
X17274Y39409
X18376Y39306
X19124Y39291
X20027Y40260
X20098Y37736
X21737Y35615
X24163Y36053
X24042Y38228
X24270Y38520
X23927Y38858
X22904Y39213
X22817Y40100
X23750Y40276
X24813Y40984
X25423Y39774
X26142Y42362
X27067Y42362
X28159Y41693
X25767Y43819
X22618Y44331
X21177Y44250
X21462Y43701
X22510Y41063
X23169Y41694
X24114Y31880
T03
X17061Y43963
Y44463
X17561
Y43963
X18061
Y44463
X18561
Y43963
X19061
Y44463
T04
X16929Y30709
X15551
X10236
X8858
X3376Y30748
X1998
T05
X18012Y28248
X14193Y28563
X13602Y26535
X11142Y28819
X6496
X6870Y28268
X6890Y26742
X276Y27274
X384Y40797
X374Y41368
X1004
Y40807
X1565
X1555Y41378
X1565Y41978
X1014Y41968
X394Y41978
X3701Y41801
X6794Y42658
X7402Y43976
X7323Y44685
X6260
Y44055
X8071Y44213
X9488Y42205
X11112Y40984
X9055Y33071
X19537Y37067
X20697Y36870
X22136Y42608
X22490Y43189
X24006Y43819
X24587Y40404
T07
X23861Y25014
Y26014
X24861Y25514
Y24514
X24929Y29189
Y30189
X23929Y29689
Y30689
X1800Y33785
Y34785
X800Y35285
Y34285
X750Y38478
Y39478
X1750Y38978
Y37978
X23900Y34862
Y33862
X24900Y33362
Y34362
T08
X24569Y26565
X24638Y31240
X1508Y35837
X1459Y40030
X24609Y35413
T09
X27559Y30315
X4390Y34252
X27559Y38189
M30
