G04 Layer_Color=8150272*
%FSLAX25Y25*%
%MOIN*%
G70*
G01*
G75*
%ADD42C,0.00394*%
%ADD84R,0.04737X0.05131*%
%ADD90R,0.05131X0.04737*%
%ADD108C,0.04800*%
%ADD109R,0.04800X0.04800*%
G04:AMPARAMS|DCode=110|XSize=63.12mil|YSize=106.42mil|CornerRadius=0mil|HoleSize=0mil|Usage=FLASHONLY|Rotation=90.000|XOffset=0mil|YOffset=0mil|HoleType=Round|Shape=Octagon|*
%AMOCTAGOND110*
4,1,8,-0.05321,-0.01578,-0.05321,0.01578,-0.03743,0.03156,0.03743,0.03156,0.05321,0.01578,0.05321,-0.01578,0.03743,-0.03156,-0.03743,-0.03156,-0.05321,-0.01578,0.0*
%
%ADD110OCTAGOND110*%

%ADD111C,0.07800*%
%ADD112C,0.00800*%
%ADD113C,0.05524*%
%ADD114C,0.06800*%
%ADD115C,0.05800*%
%ADD116C,0.03162*%
%ADD117C,0.02572*%
%ADD118R,0.05131X0.07887*%
D42*
Y234529D02*
X297521D01*
X0D02*
Y454447D01*
X297521D01*
Y234529D02*
Y454447D01*
D84*
X91043Y422146D02*
D03*
X84350D02*
D03*
D90*
X49606Y267913D02*
D03*
Y274606D02*
D03*
X44700Y267446D02*
D03*
Y260754D02*
D03*
X107300Y269847D02*
D03*
Y263154D02*
D03*
X113780Y267914D02*
D03*
Y274606D02*
D03*
X176600Y267547D02*
D03*
Y260854D02*
D03*
X184646Y266339D02*
D03*
Y273031D02*
D03*
D108*
X170610Y439626D02*
D03*
Y444626D02*
D03*
X175610Y439626D02*
D03*
Y444626D02*
D03*
X180610Y439626D02*
D03*
Y444626D02*
D03*
X185610Y439626D02*
D03*
Y444626D02*
D03*
X190610Y439626D02*
D03*
D109*
Y444626D02*
D03*
D110*
X290945Y410610D02*
D03*
Y436240D02*
D03*
D111*
X7995Y352854D02*
D03*
X17995Y347854D02*
D03*
X7995Y342854D02*
D03*
X17995Y337854D02*
D03*
X7503Y394783D02*
D03*
X17503Y389783D02*
D03*
X7503Y384783D02*
D03*
X17503Y379783D02*
D03*
X248605Y245138D02*
D03*
X238605Y250138D02*
D03*
X248605Y255138D02*
D03*
X238605Y260138D02*
D03*
X249294Y291890D02*
D03*
X239295Y296890D02*
D03*
X249294Y301890D02*
D03*
X239295Y306890D02*
D03*
X248999Y333622D02*
D03*
X238999Y338622D02*
D03*
X248999Y343622D02*
D03*
X238999Y348622D02*
D03*
D112*
X15082Y358366D02*
D03*
X14590Y400295D02*
D03*
X245692Y265650D02*
D03*
X246381Y312402D02*
D03*
X246086Y354134D02*
D03*
D113*
X155512Y307086D02*
D03*
X169291D02*
D03*
X88583D02*
D03*
X102362D02*
D03*
X19980Y307480D02*
D03*
X33760D02*
D03*
D114*
X43898Y342520D02*
D03*
X275590Y303150D02*
D03*
Y381890D02*
D03*
D115*
X94882Y422047D02*
D03*
X221358Y426083D02*
D03*
X136024Y265354D02*
D03*
X68701Y282677D02*
D03*
X68898Y267421D02*
D03*
X111122Y409842D02*
D03*
X80709Y442126D02*
D03*
X73228Y446850D02*
D03*
X62598D02*
D03*
X74016Y439764D02*
D03*
X62598Y440551D02*
D03*
X180118Y282480D02*
D03*
X245866Y404035D02*
D03*
X224902Y431890D02*
D03*
X240059Y438189D02*
D03*
X141929Y285630D02*
D03*
X111417Y288189D02*
D03*
X206972Y368700D02*
D03*
X64961Y288189D02*
D03*
X90551Y330709D02*
D03*
X37008Y418012D02*
D03*
X67936Y426577D02*
D03*
X3937Y419783D02*
D03*
X10138Y419685D02*
D03*
X15650Y419783D02*
D03*
X3740Y413681D02*
D03*
X3839Y407972D02*
D03*
X10039Y413681D02*
D03*
X15551Y413779D02*
D03*
X10039Y408071D02*
D03*
X15650D02*
D03*
X195374Y370669D02*
D03*
X2756Y272736D02*
D03*
D116*
X84252Y416535D02*
D03*
X185827Y270472D02*
D03*
X200272Y402600D02*
D03*
X148302Y408637D02*
D03*
X149385Y426354D02*
D03*
X211772Y442500D02*
D03*
X239272Y388583D02*
D03*
X150369Y421038D02*
D03*
X261417Y423622D02*
D03*
X12402Y277165D02*
D03*
X43898Y294685D02*
D03*
X158169Y394488D02*
D03*
X162500D02*
D03*
X168405Y393701D02*
D03*
X172736Y394094D02*
D03*
X281594Y416929D02*
D03*
X68996Y332480D02*
D03*
X183760Y393062D02*
D03*
X228172Y401000D02*
D03*
X16227Y276673D02*
D03*
X26100Y287400D02*
D03*
X225098Y410630D02*
D03*
X229035Y392126D02*
D03*
X240417Y382283D02*
D03*
X242700Y385200D02*
D03*
X125295Y431201D02*
D03*
X75689Y332480D02*
D03*
X81595D02*
D03*
X78248Y343701D02*
D03*
X143130Y355709D02*
D03*
X191240Y392913D02*
D03*
X147613Y431294D02*
D03*
X141117Y408834D02*
D03*
X143130Y392323D02*
D03*
X214618Y437008D02*
D03*
X257670Y438189D02*
D03*
X270669Y423622D02*
D03*
X248130Y409842D02*
D03*
X254232Y397736D02*
D03*
X237500Y402756D02*
D03*
X241634Y360531D02*
D03*
X217372Y356153D02*
D03*
X241142Y318799D02*
D03*
X240846Y271654D02*
D03*
X200984Y377362D02*
D03*
X231693Y416936D02*
D03*
X226181Y443307D02*
D03*
D117*
X51181Y272441D02*
D03*
X113386Y272441D02*
D03*
X111417Y269685D02*
D03*
X40945Y268898D02*
D03*
X105512Y269685D02*
D03*
X183071Y267323D02*
D03*
X176772D02*
D03*
X47244Y268898D02*
D03*
D118*
X81693Y430020D02*
D03*
X93504D02*
D03*
X81595Y438091D02*
D03*
X93405D02*
D03*
M02*
