G04 Layer_Physical_Order=4*
G04 Layer_Color=11436288*
%FSLAX25Y25*%
%MOIN*%
G70*
G01*
G75*
%ADD11R,0.03937X0.04331*%
%ADD17R,0.04331X0.03937*%
%ADD35C,0.00787*%
%ADD36C,0.01575*%
%ADD38C,0.03937*%
%ADD42C,0.00394*%
%ADD43C,0.04000*%
%ADD44R,0.04000X0.04000*%
G04:AMPARAMS|DCode=45|XSize=55.12mil|YSize=98.43mil|CornerRadius=0mil|HoleSize=0mil|Usage=FLASHONLY|Rotation=90.000|XOffset=0mil|YOffset=0mil|HoleType=Round|Shape=Octagon|*
%AMOCTAGOND45*
4,1,8,-0.04921,-0.01378,-0.04921,0.01378,-0.03543,0.02756,0.03543,0.02756,0.04921,0.01378,0.04921,-0.01378,0.03543,-0.02756,-0.03543,-0.02756,-0.04921,-0.01378,0.0*
%
%ADD45OCTAGOND45*%

%ADD46C,0.07000*%
%ADD47C,0.04724*%
%ADD48C,0.06000*%
%ADD49C,0.05000*%
%ADD50C,0.02362*%
%ADD51C,0.01772*%
%ADD52R,0.04331X0.07087*%
G36*
X134843Y366732D02*
X186024D01*
Y308465D01*
Y307972D01*
X205315Y288681D01*
X205512Y288484D01*
Y237120D01*
X204120Y235728D01*
X1280D01*
X984Y235851D01*
Y453346D01*
X134843D01*
Y366732D01*
D02*
G37*
G36*
X295177Y235630D02*
Y235433D01*
X208760D01*
X208563Y287402D01*
X188976Y306988D01*
Y368093D01*
X188976Y368093D01*
X188976Y369221D01*
Y369246D01*
Y369246D01*
Y369738D01*
Y369980D01*
X188878Y370079D01*
X188791Y369992D01*
X188779Y369980D01*
X187767Y369980D01*
X187312Y369980D01*
X187008D01*
X187008D01*
X137894D01*
Y452658D01*
Y452756D01*
Y452854D01*
X295177D01*
Y235630D01*
D02*
G37*
%LPC*%
G36*
X43898Y296692D02*
X43130Y296539D01*
X42478Y296104D01*
X42335Y295889D01*
X27385D01*
X27385Y295889D01*
X26924Y295798D01*
X26533Y295536D01*
X26533Y295536D01*
X11550Y280553D01*
X11289Y280162D01*
X11197Y279702D01*
X11197Y279701D01*
Y278728D01*
X10982Y278585D01*
X10547Y277934D01*
X10395Y277165D01*
X10401Y277135D01*
X10547Y276397D01*
X10547Y276397D01*
X10982Y275746D01*
X11295Y275537D01*
X11295D01*
X11300Y275534D01*
X11633Y275311D01*
X11634Y275311D01*
X11634Y275311D01*
X12402Y275158D01*
X12402Y275158D01*
X13170Y275311D01*
D01*
X13170D01*
X15048Y275093D01*
X15410Y274851D01*
X15459Y274819D01*
X16227Y274666D01*
X16995Y274819D01*
X17646Y275254D01*
X18081Y275905D01*
X18234Y276673D01*
X18081Y277441D01*
X17646Y278092D01*
X18067Y279964D01*
X23029Y284926D01*
X24681Y285981D01*
X25332Y285546D01*
X26100Y285393D01*
X26868Y285546D01*
X27519Y285981D01*
X27954Y286632D01*
X28107Y287400D01*
X27954Y288168D01*
X27519Y288819D01*
X26868Y289254D01*
X26512Y289325D01*
X25892Y290512D01*
X25737Y291334D01*
X27884Y293481D01*
X42335D01*
X42478Y293266D01*
X43130Y292831D01*
X43898Y292678D01*
X44666Y292831D01*
X45317Y293266D01*
X45752Y293917D01*
X45905Y294685D01*
X45752Y295453D01*
X45317Y296104D01*
X44666Y296539D01*
X43898Y296692D01*
D02*
G37*
G36*
X239295Y301214D02*
X238175Y301067D01*
X237132Y300635D01*
X236237Y299948D01*
X235549Y299052D01*
X235118Y298009D01*
X234970Y296890D01*
X235118Y295770D01*
X235549Y294727D01*
X236237Y293832D01*
X237132Y293145D01*
X238175Y292713D01*
X239295Y292565D01*
X240414Y292713D01*
X241457Y293145D01*
X242352Y293832D01*
X243039Y294727D01*
X243472Y295770D01*
X243619Y296890D01*
X243472Y298009D01*
X243039Y299052D01*
X242352Y299948D01*
X241457Y300635D01*
X240414Y301067D01*
X239295Y301214D01*
D02*
G37*
G36*
X249294Y306214D02*
X248175Y306067D01*
X247132Y305635D01*
X246237Y304947D01*
X245550Y304052D01*
X245117Y303009D01*
X244970Y301890D01*
X245117Y300770D01*
X245550Y299728D01*
X246237Y298832D01*
X247132Y298145D01*
X247717Y297902D01*
X247758Y297738D01*
Y296041D01*
X247717Y295877D01*
X247132Y295635D01*
X246237Y294948D01*
X245550Y294052D01*
X245117Y293009D01*
X244970Y291890D01*
X245117Y290770D01*
X245550Y289727D01*
X246237Y288832D01*
X247132Y288145D01*
X248175Y287713D01*
X249294Y287565D01*
X250414Y287713D01*
X251457Y288145D01*
X252352Y288832D01*
X253040Y289727D01*
X253471Y290770D01*
X253619Y291890D01*
X253471Y293009D01*
X253040Y294052D01*
X252352Y294948D01*
X251457Y295635D01*
X250872Y295877D01*
X250831Y296041D01*
Y297738D01*
X250872Y297902D01*
X251457Y298145D01*
X252352Y298832D01*
X253040Y299728D01*
X253471Y300770D01*
X253619Y301890D01*
X253471Y303009D01*
X253040Y304052D01*
X252352Y304947D01*
X251457Y305635D01*
X250414Y306067D01*
X249294Y306214D01*
D02*
G37*
G36*
X275590Y309875D02*
X274278Y309746D01*
X273017Y309363D01*
X271854Y308741D01*
X270835Y307905D01*
X269999Y306886D01*
X269377Y305723D01*
X268994Y304462D01*
X268865Y303150D01*
X268994Y301838D01*
X269377Y300576D01*
X269999Y299413D01*
X270835Y298394D01*
X271854Y297558D01*
X273017Y296936D01*
X274278Y296553D01*
X275590Y296424D01*
X276903Y296553D01*
X278164Y296936D01*
X279327Y297558D01*
X280346Y298394D01*
X281182Y299413D01*
X281804Y300576D01*
X282187Y301838D01*
X282316Y303150D01*
X282187Y304462D01*
X281804Y305723D01*
X281182Y306886D01*
X280346Y307905D01*
X279327Y308741D01*
X278164Y309363D01*
X276903Y309746D01*
X275590Y309875D01*
D02*
G37*
G36*
X33760Y310657D02*
X32938Y310549D01*
X32171Y310231D01*
X31514Y309727D01*
X31009Y309069D01*
X30691Y308303D01*
X30583Y307480D01*
X30691Y306658D01*
X31009Y305892D01*
X31514Y305234D01*
X32171Y304729D01*
X32938Y304412D01*
X33760Y304304D01*
X34582Y304412D01*
X35348Y304729D01*
X36006Y305234D01*
X36511Y305892D01*
X36828Y306658D01*
X36937Y307480D01*
X36828Y308303D01*
X36511Y309069D01*
X36006Y309727D01*
X35348Y310231D01*
X34582Y310549D01*
X33760Y310657D01*
D02*
G37*
G36*
X169291Y310263D02*
X168469Y310155D01*
X167703Y309838D01*
X167045Y309333D01*
X166540Y308675D01*
X166223Y307909D01*
X166115Y307086D01*
X166223Y306264D01*
X166540Y305498D01*
X167045Y304840D01*
X167703Y304335D01*
X168469Y304018D01*
X169291Y303910D01*
X170114Y304018D01*
X170880Y304335D01*
X171538Y304840D01*
X172043Y305498D01*
X172360Y306264D01*
X172468Y307086D01*
X172360Y307909D01*
X172043Y308675D01*
X171538Y309333D01*
X170880Y309838D01*
X170114Y310155D01*
X169291Y310263D01*
D02*
G37*
G36*
X102362D02*
X101540Y310155D01*
X100774Y309838D01*
X100116Y309333D01*
X99611Y308675D01*
X99294Y307909D01*
X99186Y307086D01*
X99294Y306264D01*
X99611Y305498D01*
X100116Y304840D01*
X100774Y304335D01*
X101540Y304018D01*
X102362Y303910D01*
X103184Y304018D01*
X103951Y304335D01*
X104609Y304840D01*
X105113Y305498D01*
X105431Y306264D01*
X105539Y307086D01*
X105431Y307909D01*
X105113Y308675D01*
X104609Y309333D01*
X103951Y309838D01*
X103184Y310155D01*
X102362Y310263D01*
D02*
G37*
G36*
X90551Y334024D02*
X89693Y333911D01*
X88893Y333580D01*
X88207Y333053D01*
X87680Y332366D01*
X87348Y331567D01*
X87329Y331417D01*
X68901Y312989D01*
X68459Y312414D01*
X68181Y311743D01*
X68086Y311024D01*
Y295246D01*
X64252Y291411D01*
X64102Y291392D01*
X63303Y291060D01*
X62616Y290534D01*
X62089Y289847D01*
X61758Y289047D01*
X61645Y288189D01*
X61758Y287331D01*
X62089Y286531D01*
X62616Y285844D01*
X63303Y285317D01*
X64102Y284986D01*
X64961Y284873D01*
X65819Y284986D01*
X66619Y285317D01*
X66738Y285409D01*
X109640D01*
X109759Y285317D01*
X110559Y284986D01*
X111417Y284873D01*
X112276Y284986D01*
X113075Y285317D01*
X113762Y285844D01*
X114289Y286531D01*
X114620Y287331D01*
X114733Y288189D01*
X114620Y289047D01*
X114289Y289847D01*
X113762Y290534D01*
X113075Y291060D01*
X112276Y291392D01*
X111417Y291505D01*
X110559Y291392D01*
X109759Y291060D01*
X109640Y290969D01*
X74423D01*
X73698Y292063D01*
X73370Y292937D01*
X73551Y293375D01*
X73646Y294094D01*
Y309872D01*
X91260Y327486D01*
X91409Y327506D01*
X92209Y327837D01*
X92896Y328364D01*
X93423Y329051D01*
X93754Y329851D01*
X93867Y330709D01*
X93754Y331567D01*
X93423Y332366D01*
X92896Y333053D01*
X92209Y333580D01*
X91409Y333911D01*
X90551Y334024D01*
D02*
G37*
G36*
X245692Y269422D02*
X244716Y269294D01*
X243806Y268917D01*
X243025Y268317D01*
X242425Y267536D01*
X242048Y266626D01*
X241920Y265650D01*
X242048Y264673D01*
X242425Y263763D01*
X243025Y262982D01*
X243806Y262383D01*
X244716Y262006D01*
X245692Y261877D01*
X246669Y262006D01*
X247578Y262383D01*
X248360Y262982D01*
X248959Y263763D01*
X249336Y264673D01*
X249465Y265650D01*
X249336Y266626D01*
X248959Y267536D01*
X248360Y268317D01*
X247578Y268917D01*
X246669Y269294D01*
X245692Y269422D01*
D02*
G37*
G36*
X238605Y254462D02*
X237486Y254315D01*
X236443Y253883D01*
X235548Y253196D01*
X234860Y252300D01*
X234428Y251257D01*
X234281Y250138D01*
X234428Y249019D01*
X234860Y247975D01*
X235548Y247080D01*
X236443Y246393D01*
X237486Y245961D01*
X238605Y245813D01*
X239725Y245961D01*
X240768Y246393D01*
X241663Y247080D01*
X242351Y247975D01*
X242782Y249019D01*
X242930Y250138D01*
X242782Y251257D01*
X242351Y252300D01*
X241663Y253196D01*
X240768Y253883D01*
X239725Y254315D01*
X238605Y254462D01*
D02*
G37*
G36*
X248605Y259462D02*
X247486Y259315D01*
X246443Y258883D01*
X245548Y258195D01*
X244860Y257300D01*
X244428Y256257D01*
X244281Y255138D01*
X244428Y254018D01*
X244860Y252976D01*
X245548Y252080D01*
X246443Y251393D01*
X247028Y251150D01*
X247069Y250987D01*
Y249289D01*
X247028Y249125D01*
X246443Y248883D01*
X245548Y248196D01*
X244860Y247300D01*
X244428Y246257D01*
X244281Y245138D01*
X244428Y244019D01*
X244860Y242975D01*
X245548Y242080D01*
X246443Y241393D01*
X247486Y240961D01*
X248605Y240813D01*
X249725Y240961D01*
X250768Y241393D01*
X251663Y242080D01*
X252350Y242975D01*
X252783Y244019D01*
X252930Y245138D01*
X252783Y246257D01*
X252350Y247300D01*
X251663Y248196D01*
X250768Y248883D01*
X250183Y249125D01*
X250142Y249289D01*
Y250987D01*
X250183Y251150D01*
X250768Y251393D01*
X251663Y252080D01*
X252350Y252976D01*
X252783Y254018D01*
X252930Y255138D01*
X252783Y256257D01*
X252350Y257300D01*
X251663Y258195D01*
X250768Y258883D01*
X249725Y259315D01*
X248605Y259462D01*
D02*
G37*
G36*
X116732Y277362D02*
X110827D01*
Y274333D01*
X110253Y272602D01*
X109607D01*
X108858Y272602D01*
X104347D01*
Y272213D01*
X103976Y270398D01*
X103975Y270397D01*
X103937Y270339D01*
X103936Y270338D01*
Y270338D01*
X103874Y270027D01*
X103806Y269685D01*
X103874Y269343D01*
X103936Y269032D01*
Y269032D01*
X103937Y269031D01*
X103975Y268973D01*
X103976Y268971D01*
X104347Y267157D01*
Y267091D01*
X110253D01*
X110827Y265360D01*
Y265158D01*
X116732D01*
Y269882D01*
X116732Y270669D01*
Y271260D01*
Y271850D01*
X116732Y272638D01*
Y277362D01*
D02*
G37*
G36*
X141929Y288946D02*
X141071Y288833D01*
X140271Y288501D01*
X139585Y287975D01*
X139058Y287288D01*
X138726Y286488D01*
X138613Y285630D01*
X138726Y284772D01*
X139058Y283972D01*
X139585Y283285D01*
X140271Y282758D01*
X141071Y282427D01*
X141929Y282314D01*
X142787Y282427D01*
X143587Y282758D01*
X143707Y282850D01*
X175424D01*
X177102Y281172D01*
X177247Y280822D01*
X177773Y280136D01*
X178460Y279609D01*
X179260Y279277D01*
X180118Y279165D01*
X180976Y279277D01*
X181776Y279609D01*
X182463Y280136D01*
X182990Y280822D01*
X183321Y281622D01*
X183434Y282480D01*
X183321Y283338D01*
X182990Y284138D01*
X182463Y284825D01*
X181776Y285352D01*
X180976Y285683D01*
X180373Y285763D01*
X178540Y287595D01*
X177965Y288037D01*
X177294Y288315D01*
X176575Y288410D01*
X143707D01*
X143587Y288501D01*
X142787Y288833D01*
X141929Y288946D01*
D02*
G37*
G36*
X52559Y277362D02*
X46654D01*
Y272638D01*
X46654Y272340D01*
X46640Y271924D01*
X46577Y271688D01*
X45880Y270202D01*
X42004D01*
X41598Y270474D01*
X40945Y270604D01*
X40363Y270488D01*
X40292Y270474D01*
X40292Y270474D01*
X39739Y270104D01*
X39369Y269550D01*
X39253Y268969D01*
X39253Y268969D01*
X39239Y268898D01*
X39239Y268898D01*
X39253Y268826D01*
X39369Y268245D01*
X39739Y267691D01*
X40292Y267321D01*
X40292Y267321D01*
X40363Y267307D01*
X40363Y267307D01*
X40945Y267192D01*
X41747Y265344D01*
Y264690D01*
X47653D01*
Y265158D01*
X52559D01*
Y269155D01*
Y269162D01*
Y269283D01*
X52695Y271195D01*
X52695Y271195D01*
X52748Y271536D01*
X52887Y272441D01*
X52887Y272441D01*
Y272441D01*
X52887Y272441D01*
Y272441D01*
X52887Y272442D01*
Y272442D01*
X52874Y272507D01*
X52874Y272507D01*
X52874Y272508D01*
Y272508D01*
X52757Y273094D01*
X52757Y273094D01*
X52718Y273153D01*
X52717Y273154D01*
X52559Y275058D01*
Y277362D01*
D02*
G37*
G36*
X187598Y275787D02*
X181693D01*
Y270276D01*
X181693D01*
Y269938D01*
X181521Y269754D01*
X179553Y270302D01*
Y270302D01*
X173647D01*
Y264791D01*
X179553D01*
Y264791D01*
X181521Y264852D01*
X181693Y264707D01*
Y263583D01*
X187598D01*
Y268601D01*
X187834Y270472D01*
D01*
Y270472D01*
X187598Y272343D01*
Y275787D01*
D02*
G37*
G36*
X246381Y316174D02*
X245405Y316046D01*
X244495Y315669D01*
X243714Y315069D01*
X243114Y314288D01*
X242737Y313378D01*
X242609Y312402D01*
X242737Y311425D01*
X243114Y310515D01*
X243714Y309734D01*
X244495Y309135D01*
X245405Y308758D01*
X246381Y308629D01*
X247358Y308758D01*
X248267Y309135D01*
X249049Y309734D01*
X249648Y310515D01*
X250025Y311425D01*
X250153Y312402D01*
X250025Y313378D01*
X249648Y314288D01*
X249049Y315069D01*
X248267Y315669D01*
X247358Y316046D01*
X246381Y316174D01*
D02*
G37*
G36*
X14590Y404068D02*
X13613Y403939D01*
X12704Y403562D01*
X11922Y402963D01*
X11323Y402181D01*
X10946Y401271D01*
X10817Y400295D01*
X10844Y400096D01*
X10500Y399639D01*
X9303Y398806D01*
X9127Y398751D01*
X8623Y398960D01*
X7503Y399108D01*
X6384Y398960D01*
X5341Y398528D01*
X4445Y397841D01*
X3758Y396946D01*
X3326Y395903D01*
X3179Y394783D01*
X3326Y393664D01*
X3758Y392621D01*
X4445Y391725D01*
X5341Y391038D01*
X6384Y390606D01*
X7503Y390459D01*
X8623Y390606D01*
X9665Y391038D01*
X10561Y391725D01*
X11248Y392621D01*
X11680Y393664D01*
X11828Y394783D01*
X11746Y395402D01*
X11765Y395434D01*
X12866Y396433D01*
X13477Y396708D01*
X13613Y396651D01*
X14590Y396523D01*
X15566Y396651D01*
X16476Y397028D01*
X17257Y397628D01*
X17857Y398409D01*
X18234Y399319D01*
X18362Y400295D01*
X18234Y401271D01*
X17857Y402181D01*
X17257Y402963D01*
X16476Y403562D01*
X15566Y403939D01*
X14590Y404068D01*
D02*
G37*
G36*
X245866Y407351D02*
X245008Y407238D01*
X244208Y406907D01*
X243521Y406380D01*
X242995Y405693D01*
X242663Y404894D01*
X242550Y404035D01*
X242663Y403177D01*
X242995Y402378D01*
X243521Y401691D01*
X244208Y401164D01*
X245008Y400833D01*
X245866Y400720D01*
X246724Y400833D01*
X247524Y401164D01*
X248211Y401691D01*
X248738Y402378D01*
X249069Y403177D01*
X249182Y404035D01*
X249069Y404894D01*
X248738Y405693D01*
X248211Y406380D01*
X247524Y406907D01*
X246724Y407238D01*
X245866Y407351D01*
D02*
G37*
G36*
X275590Y388615D02*
X274278Y388486D01*
X273017Y388103D01*
X271854Y387482D01*
X270835Y386645D01*
X269999Y385626D01*
X269377Y384463D01*
X268994Y383202D01*
X268865Y381890D01*
X268994Y380578D01*
X269377Y379316D01*
X269999Y378153D01*
X270835Y377134D01*
X271854Y376298D01*
X273017Y375676D01*
X274278Y375294D01*
X275590Y375165D01*
X276903Y375294D01*
X278164Y375676D01*
X279327Y376298D01*
X280346Y377134D01*
X281182Y378153D01*
X281804Y379316D01*
X282187Y380578D01*
X282316Y381890D01*
X282187Y383202D01*
X281804Y384463D01*
X281182Y385626D01*
X280346Y386645D01*
X279327Y387482D01*
X278164Y388103D01*
X276903Y388486D01*
X275590Y388615D01*
D02*
G37*
G36*
X17503Y394108D02*
X16384Y393960D01*
X15341Y393528D01*
X14445Y392841D01*
X13758Y391946D01*
X13326Y390903D01*
X13179Y389783D01*
X13326Y388664D01*
X13758Y387621D01*
X14445Y386725D01*
X15341Y386038D01*
X15926Y385796D01*
X15967Y385632D01*
Y383935D01*
X15926Y383771D01*
X15341Y383528D01*
X14445Y382841D01*
X13758Y381946D01*
X13326Y380903D01*
X13179Y379783D01*
X13326Y378664D01*
X13758Y377621D01*
X14445Y376726D01*
X15341Y376038D01*
X16384Y375606D01*
X17503Y375459D01*
X18622Y375606D01*
X19665Y376038D01*
X20561Y376726D01*
X21248Y377621D01*
X21680Y378664D01*
X21828Y379783D01*
X21680Y380903D01*
X21248Y381946D01*
X20561Y382841D01*
X19665Y383528D01*
X19080Y383771D01*
X19039Y383935D01*
Y385632D01*
X19080Y385796D01*
X19665Y386038D01*
X20561Y386725D01*
X21248Y387621D01*
X21680Y388664D01*
X21828Y389783D01*
X21680Y390903D01*
X21248Y391946D01*
X20561Y392841D01*
X19665Y393528D01*
X18622Y393960D01*
X17503Y394108D01*
D02*
G37*
G36*
X62598Y450166D02*
X61740Y450053D01*
X60940Y449722D01*
X60254Y449195D01*
X59727Y448508D01*
X59396Y447709D01*
X59283Y446850D01*
X59396Y445992D01*
X59727Y445192D01*
X59905Y444960D01*
X60254Y444443D01*
Y442959D01*
X59905Y442442D01*
X59727Y442209D01*
X59396Y441409D01*
X59283Y440551D01*
X59396Y439693D01*
X59727Y438893D01*
X60254Y438207D01*
X60940Y437680D01*
X61740Y437348D01*
X62598Y437235D01*
X63457Y437348D01*
X64256Y437680D01*
X64943Y438207D01*
X65470Y438893D01*
X65801Y439693D01*
X65914Y440551D01*
X65801Y441409D01*
X65470Y442209D01*
X65291Y442442D01*
X64943Y442959D01*
Y444443D01*
X65291Y444960D01*
X65470Y445192D01*
X65801Y445992D01*
X65914Y446850D01*
X65801Y447709D01*
X65470Y448508D01*
X64943Y449195D01*
X64256Y449722D01*
X63457Y450053D01*
X62598Y450166D01*
D02*
G37*
G36*
X175610Y447437D02*
X174883Y447342D01*
X174205Y447061D01*
X173622Y446614D01*
X173176Y446032D01*
X172895Y445354D01*
X172799Y444626D01*
X172895Y443898D01*
X172983Y443684D01*
X172916Y443572D01*
X171665Y442320D01*
X171552Y442253D01*
X171338Y442342D01*
X170610Y442437D01*
X169883Y442342D01*
X169205Y442061D01*
X168622Y441614D01*
X168176Y441032D01*
X167895Y440354D01*
X167799Y439626D01*
X167895Y438898D01*
X168176Y438220D01*
X168622Y437638D01*
X169205Y437191D01*
X169406Y437108D01*
Y434161D01*
X169406Y434161D01*
X169498Y433701D01*
X169759Y433310D01*
X190141Y412928D01*
X190531Y412667D01*
X190992Y412575D01*
X221663D01*
X222008Y412318D01*
X223091Y410630D01*
X223244Y409862D01*
X223679Y409211D01*
X224288Y408804D01*
Y404042D01*
X221450Y401204D01*
X203894D01*
X202279Y402600D01*
X202126Y403368D01*
X201691Y404019D01*
X201040Y404454D01*
X200272Y404607D01*
X199504Y404454D01*
X198852Y404019D01*
X198709Y403804D01*
X173637D01*
X151342Y426100D01*
X151392Y426354D01*
X151239Y427122D01*
X150804Y427773D01*
X150153Y428208D01*
X149385Y428361D01*
X148617Y428208D01*
X147966Y427773D01*
X147531Y427122D01*
X147378Y426354D01*
X147531Y425585D01*
X147966Y424934D01*
X148617Y424499D01*
X148950Y422458D01*
X148515Y421807D01*
X148362Y421038D01*
X148515Y420270D01*
X148950Y419619D01*
X149601Y419184D01*
X150369Y419031D01*
X150496Y418928D01*
Y411906D01*
X150067Y411481D01*
X148527Y410599D01*
X148302Y410644D01*
X147534Y410491D01*
X146883Y410056D01*
X146448Y409405D01*
X146295Y408637D01*
X146448Y407869D01*
X146883Y407218D01*
X147534Y406783D01*
X148302Y406630D01*
X148527Y406674D01*
X150067Y405793D01*
X150496Y405368D01*
Y395400D01*
X150496Y395400D01*
X150587Y394939D01*
X150848Y394549D01*
X163965Y381432D01*
X163965Y381432D01*
X164356Y381171D01*
X164817Y381079D01*
X238854D01*
X238998Y380864D01*
X239649Y380429D01*
X240417Y380276D01*
X240785Y380350D01*
X241185Y380429D01*
X241185Y380429D01*
X241836Y380864D01*
X242271Y381515D01*
Y381515D01*
Y381515D01*
X242271Y381515D01*
X242442Y381958D01*
X243468Y383346D01*
Y383346D01*
X243468D01*
Y383346D01*
X244119Y383781D01*
X244554Y384432D01*
X244554Y384432D01*
X244634Y384831D01*
X244707Y385200D01*
X244554Y385968D01*
X244119Y386619D01*
X243468Y387054D01*
X242853Y387177D01*
X242656Y387249D01*
X241378Y388486D01*
X241231Y388820D01*
X241126Y389351D01*
X240691Y390002D01*
X240040Y390437D01*
X239272Y390590D01*
X238504Y390437D01*
X237852Y390002D01*
X237709Y389787D01*
X232207D01*
X231705Y390385D01*
X230969Y391755D01*
X231043Y392126D01*
X230992Y392380D01*
X232723Y394111D01*
X232984Y394501D01*
X233076Y394962D01*
Y411100D01*
X233076Y411100D01*
X232984Y411561D01*
X232723Y411951D01*
X232723Y411952D01*
X230044Y414631D01*
X229653Y414892D01*
X229192Y414984D01*
X229192Y414984D01*
X191491D01*
X171815Y434660D01*
Y436760D01*
X173226Y437638D01*
X173622D01*
X174205Y437191D01*
X174883Y436910D01*
X175610Y436814D01*
X176338Y436910D01*
X177016Y437191D01*
X177598Y437638D01*
X178622D01*
X179205Y437191D01*
X179883Y436910D01*
X180610Y436814D01*
X181338Y436910D01*
X182016Y437191D01*
X182598Y437638D01*
X183622D01*
X184205Y437191D01*
X184883Y436910D01*
X185610Y436814D01*
X186338Y436910D01*
X187016Y437191D01*
X187598Y437638D01*
X188622D01*
X189205Y437191D01*
X189883Y436910D01*
X190610Y436814D01*
X191338Y436910D01*
X192016Y437191D01*
X192598Y437638D01*
X193045Y438220D01*
X193326Y438898D01*
X193422Y439626D01*
X193390Y439870D01*
X193398Y441839D01*
X193398Y441839D01*
X193398Y441839D01*
Y447413D01*
X187823D01*
Y443826D01*
X187220Y443223D01*
X185854Y442405D01*
X185610Y442437D01*
X184883Y442342D01*
X184205Y442061D01*
X183622Y441614D01*
X182598D01*
X182016Y442061D01*
X181338Y442342D01*
X180610Y442437D01*
X179883Y442342D01*
X179669Y442253D01*
X179556Y442320D01*
X178305Y443572D01*
X178237Y443684D01*
X178326Y443898D01*
X178422Y444626D01*
X178326Y445354D01*
X178045Y446032D01*
X177598Y446614D01*
X177016Y447061D01*
X176338Y447342D01*
X175610Y447437D01*
D02*
G37*
G36*
X73228Y450166D02*
X72370Y450053D01*
X71570Y449722D01*
X70884Y449195D01*
X70357Y448508D01*
X70026Y447709D01*
X69913Y446850D01*
X70026Y445992D01*
X70357Y445192D01*
X70884Y444506D01*
X71253Y444222D01*
X71529Y442826D01*
X71495Y441879D01*
X71144Y441422D01*
X70813Y440622D01*
X70700Y439764D01*
X70813Y438906D01*
X71144Y438106D01*
X71671Y437419D01*
X72358Y436892D01*
X73158Y436561D01*
X74016Y436448D01*
X74874Y436561D01*
X75674Y436892D01*
X76360Y437419D01*
X76673Y437827D01*
X77713Y437721D01*
X78642Y437288D01*
Y433760D01*
X78740D01*
Y425689D01*
X78815D01*
Y424902D01*
X78909Y424182D01*
X79187Y423512D01*
X79629Y422936D01*
X81472Y421093D01*
Y416535D01*
X81567Y415816D01*
X81845Y415146D01*
X82286Y414570D01*
X82862Y414128D01*
X83533Y413850D01*
X84252Y413756D01*
X84971Y413850D01*
X85642Y414128D01*
X86217Y414570D01*
X86659Y415146D01*
X86937Y415816D01*
X87032Y416535D01*
Y419193D01*
X87106D01*
Y425099D01*
X85329D01*
X84646Y425782D01*
Y434350D01*
X84547D01*
Y442421D01*
X83986D01*
X83912Y442984D01*
X83580Y443784D01*
X83053Y444471D01*
X82367Y444998D01*
X81567Y445329D01*
X80709Y445442D01*
X79851Y445329D01*
X79051Y444998D01*
X78364Y444471D01*
X76229Y444442D01*
X76015Y444529D01*
X75749Y444735D01*
X76100Y445192D01*
X76431Y445992D01*
X76544Y446850D01*
X76431Y447709D01*
X76100Y448508D01*
X75573Y449195D01*
X74886Y449722D01*
X74086Y450053D01*
X73228Y450166D01*
D02*
G37*
G36*
X216772Y445280D02*
X211772D01*
X211052Y445185D01*
X210382Y444907D01*
X209806Y444465D01*
X209364Y443890D01*
X209087Y443219D01*
X208992Y442500D01*
X209087Y441781D01*
X209364Y441110D01*
X209806Y440534D01*
X210382Y440093D01*
X211052Y439815D01*
X211772Y439720D01*
X215620D01*
X219117Y436224D01*
X219693Y435782D01*
X220363Y435504D01*
X220987Y435422D01*
X221231Y435117D01*
X222030Y433548D01*
X221699Y432748D01*
X221586Y431890D01*
X221699Y431032D01*
X222030Y430232D01*
X222557Y429545D01*
X223244Y429018D01*
X224043Y428687D01*
X224902Y428574D01*
X225760Y428687D01*
X226559Y429018D01*
X227246Y429545D01*
X227773Y430232D01*
X228104Y431032D01*
X228217Y431890D01*
X228104Y432748D01*
X227773Y433548D01*
X228826Y435409D01*
X238281D01*
X238401Y435318D01*
X239201Y434986D01*
X240059Y434873D01*
X240917Y434986D01*
X241717Y435318D01*
X241837Y435409D01*
X245502D01*
X265948Y414964D01*
X266524Y414522D01*
X267194Y414244D01*
X267913Y414150D01*
X281594D01*
X282314Y414244D01*
X282984Y414522D01*
X283560Y414964D01*
X284002Y415539D01*
X284279Y416210D01*
X284374Y416929D01*
X284279Y417649D01*
X284002Y418319D01*
X283560Y418895D01*
X282984Y419336D01*
X282314Y419614D01*
X281594Y419709D01*
X269065D01*
X248619Y440155D01*
X248043Y440596D01*
X247373Y440874D01*
X246654Y440969D01*
X241837D01*
X241717Y441060D01*
X240917Y441392D01*
X240059Y441505D01*
X239201Y441392D01*
X238401Y441060D01*
X238281Y440969D01*
X222234D01*
X218737Y444465D01*
X218162Y444907D01*
X217491Y445185D01*
X216772Y445280D01*
D02*
G37*
G36*
X17995Y352179D02*
X16876Y352031D01*
X15833Y351599D01*
X14938Y350912D01*
X14250Y350016D01*
X13818Y348973D01*
X13671Y347854D01*
X13818Y346735D01*
X14250Y345692D01*
X14938Y344796D01*
X15833Y344109D01*
X16418Y343867D01*
X16459Y343703D01*
Y342005D01*
X16418Y341842D01*
X15833Y341599D01*
X14938Y340912D01*
X14250Y340016D01*
X13818Y338973D01*
X13671Y337854D01*
X13818Y336735D01*
X14250Y335692D01*
X14938Y334796D01*
X15833Y334109D01*
X16876Y333677D01*
X17995Y333530D01*
X19115Y333677D01*
X20157Y334109D01*
X21053Y334796D01*
X21740Y335692D01*
X22172Y336735D01*
X22320Y337854D01*
X22172Y338973D01*
X21740Y340016D01*
X21053Y340912D01*
X20157Y341599D01*
X19573Y341842D01*
X19532Y342005D01*
Y343703D01*
X19573Y343867D01*
X20157Y344109D01*
X21053Y344796D01*
X21740Y345692D01*
X22172Y346735D01*
X22320Y347854D01*
X22172Y348973D01*
X21740Y350016D01*
X21053Y350912D01*
X20157Y351599D01*
X19115Y352031D01*
X17995Y352179D01*
D02*
G37*
G36*
X238999Y342947D02*
X237880Y342799D01*
X236837Y342367D01*
X235941Y341680D01*
X235254Y340784D01*
X234822Y339741D01*
X234675Y338622D01*
X234822Y337503D01*
X235254Y336460D01*
X235941Y335564D01*
X236837Y334877D01*
X237880Y334445D01*
X238999Y334298D01*
X240118Y334445D01*
X241161Y334877D01*
X242057Y335564D01*
X242744Y336460D01*
X243176Y337503D01*
X243323Y338622D01*
X243176Y339741D01*
X242744Y340784D01*
X242057Y341680D01*
X241161Y342367D01*
X240118Y342799D01*
X238999Y342947D01*
D02*
G37*
G36*
X248999Y347947D02*
X247880Y347799D01*
X246837Y347367D01*
X245941Y346680D01*
X245254Y345784D01*
X244822Y344741D01*
X244675Y343622D01*
X244822Y342503D01*
X245254Y341460D01*
X245941Y340564D01*
X246837Y339877D01*
X247422Y339635D01*
X247463Y339471D01*
Y337773D01*
X247422Y337609D01*
X246837Y337367D01*
X245941Y336680D01*
X245254Y335784D01*
X244822Y334741D01*
X244675Y333622D01*
X244822Y332503D01*
X245254Y331460D01*
X245941Y330564D01*
X246837Y329877D01*
X247880Y329445D01*
X248999Y329298D01*
X250118Y329445D01*
X251161Y329877D01*
X252057Y330564D01*
X252744Y331460D01*
X253176Y332503D01*
X253324Y333622D01*
X253176Y334741D01*
X252744Y335784D01*
X252057Y336680D01*
X251161Y337367D01*
X250576Y337609D01*
X250535Y337773D01*
Y339471D01*
X250576Y339635D01*
X251161Y339877D01*
X252057Y340564D01*
X252744Y341460D01*
X253176Y342503D01*
X253324Y343622D01*
X253176Y344741D01*
X252744Y345784D01*
X252057Y346680D01*
X251161Y347367D01*
X250118Y347799D01*
X248999Y347947D01*
D02*
G37*
G36*
X68996Y334487D02*
X68228Y334335D01*
X67577Y333899D01*
X67142Y333248D01*
X66989Y332480D01*
X67142Y331712D01*
X67577Y331061D01*
X68228Y330626D01*
X68996Y330473D01*
X69764Y330626D01*
X70415Y331061D01*
X70850Y331712D01*
X71003Y332480D01*
X70850Y333248D01*
X70415Y333899D01*
X69764Y334335D01*
X68996Y334487D01*
D02*
G37*
G36*
X43898Y349245D02*
X42586Y349116D01*
X41324Y348733D01*
X40161Y348112D01*
X39142Y347275D01*
X38306Y346256D01*
X37684Y345093D01*
X37302Y343832D01*
X37172Y342520D01*
X37302Y341208D01*
X37684Y339946D01*
X38306Y338783D01*
X39142Y337764D01*
X40161Y336928D01*
X41324Y336306D01*
X42586Y335924D01*
X43898Y335794D01*
X45210Y335924D01*
X46471Y336306D01*
X47634Y336928D01*
X48653Y337764D01*
X49490Y338783D01*
X50111Y339946D01*
X50494Y341208D01*
X50623Y342520D01*
X50494Y343832D01*
X50111Y345093D01*
X49490Y346256D01*
X48653Y347275D01*
X47634Y348112D01*
X46471Y348733D01*
X45210Y349116D01*
X43898Y349245D01*
D02*
G37*
G36*
X15082Y362138D02*
X14106Y362010D01*
X13196Y361633D01*
X12414Y361034D01*
X11815Y360252D01*
X11438Y359342D01*
X11310Y358366D01*
X11336Y358166D01*
X10992Y357710D01*
X9796Y356877D01*
X9619Y356822D01*
X9115Y357031D01*
X7995Y357179D01*
X6876Y357031D01*
X5833Y356599D01*
X4938Y355912D01*
X4250Y355016D01*
X3818Y353973D01*
X3671Y352854D01*
X3818Y351735D01*
X4250Y350692D01*
X4938Y349796D01*
X5833Y349109D01*
X6876Y348677D01*
X7995Y348530D01*
X9115Y348677D01*
X10158Y349109D01*
X11053Y349796D01*
X11740Y350692D01*
X12172Y351735D01*
X12320Y352854D01*
X12238Y353473D01*
X12257Y353505D01*
X13358Y354504D01*
X13970Y354778D01*
X14106Y354722D01*
X15082Y354594D01*
X16058Y354722D01*
X16968Y355099D01*
X17749Y355698D01*
X18349Y356480D01*
X18726Y357390D01*
X18854Y358366D01*
X18726Y359342D01*
X18349Y360252D01*
X17749Y361034D01*
X16968Y361633D01*
X16058Y362010D01*
X15082Y362138D01*
D02*
G37*
G36*
X206972Y372016D02*
X206114Y371903D01*
X205314Y371571D01*
X204627Y371045D01*
X204100Y370358D01*
X203769Y369558D01*
X203656Y368700D01*
X203769Y367842D01*
X204100Y367042D01*
X204627Y366355D01*
X205314Y365828D01*
X206114Y365497D01*
X206972Y365384D01*
X207830Y365497D01*
X208629Y365828D01*
X209316Y366355D01*
X209843Y367042D01*
X210174Y367842D01*
X210287Y368700D01*
X210174Y369558D01*
X209843Y370358D01*
X209316Y371045D01*
X208629Y371571D01*
X207830Y371903D01*
X206972Y372016D01*
D02*
G37*
G36*
X246086Y357906D02*
X245109Y357778D01*
X244199Y357401D01*
X243418Y356801D01*
X242819Y356020D01*
X242442Y355110D01*
X242313Y354134D01*
X242442Y353157D01*
X242819Y352248D01*
X243418Y351466D01*
X244199Y350867D01*
X245109Y350490D01*
X246086Y350361D01*
X247062Y350490D01*
X247972Y350867D01*
X248753Y351466D01*
X249353Y352248D01*
X249730Y353157D01*
X249858Y354134D01*
X249730Y355110D01*
X249353Y356020D01*
X248753Y356801D01*
X247972Y357401D01*
X247062Y357778D01*
X246086Y357906D01*
D02*
G37*
%LPD*%
G36*
X212644Y389098D02*
X211828Y387129D01*
X181404D01*
X175813Y392721D01*
X175875Y395195D01*
X176279Y395587D01*
X176299Y395596D01*
X180736D01*
X181787Y394009D01*
X181865Y393627D01*
X181753Y393062D01*
X181906Y392294D01*
X182341Y391643D01*
X182992Y391208D01*
X183760Y391055D01*
X184528Y391208D01*
X185179Y391643D01*
X185614Y392294D01*
X185767Y393062D01*
X185654Y393627D01*
X185733Y394009D01*
X186784Y395596D01*
X206146D01*
X212644Y389098D01*
D02*
G37*
D11*
X91043Y422146D02*
D03*
X84350D02*
D03*
D17*
X49606Y267913D02*
D03*
Y274606D02*
D03*
X44700Y267446D02*
D03*
Y260754D02*
D03*
X107300Y269847D02*
D03*
Y263154D02*
D03*
X113780Y267914D02*
D03*
Y274606D02*
D03*
X176600Y267547D02*
D03*
Y260854D02*
D03*
X184646Y266339D02*
D03*
Y273031D02*
D03*
D35*
X241975Y385925D02*
X242700Y385200D01*
X180905Y385925D02*
X241975D01*
X172736Y394094D02*
X180905Y385925D01*
X227372Y401000D02*
X228172D01*
X224797Y398425D02*
X227372Y401000D01*
X225098Y410630D02*
X225492Y410236D01*
Y403543D02*
Y410236D01*
X185610Y439291D02*
Y439626D01*
X214862Y388583D02*
X239272D01*
X162500Y394488D02*
X166437Y398425D01*
X158169Y394488D02*
X163681Y400000D01*
X221949D01*
X225492Y403543D01*
X168405Y393701D02*
X171505Y396800D01*
X206645D01*
X214862Y388583D01*
X166437Y398425D02*
X224797D01*
X170610Y434161D02*
Y439626D01*
X231872Y394962D02*
Y411100D01*
X12402Y277165D02*
Y279702D01*
X27385Y294685D01*
X43898D01*
X16227Y276673D02*
Y279827D01*
X23600Y287200D01*
X25900D01*
X26100Y287400D01*
X170610Y434161D02*
X190992Y413779D01*
X229192D01*
X231872Y411100D01*
X229035Y392126D02*
X231872Y394962D01*
X164817Y382283D02*
X240417D01*
X151700Y395400D02*
X164817Y382283D01*
X151700Y395400D02*
Y419708D01*
X150369Y421038D02*
X151700Y419708D01*
X149385Y426354D02*
X173138Y402600D01*
X200272D01*
D36*
X179724Y282480D02*
X180118D01*
D38*
X84252Y416535D02*
Y422244D01*
X81595Y424902D02*
Y438091D01*
Y424902D02*
X84252Y422244D01*
X176575Y285630D02*
X179724Y282480D01*
X141929Y285630D02*
X176575D01*
X211772Y442500D02*
X216772D01*
X221083Y438189D01*
X240059D02*
X246654D01*
X221083D02*
X240059D01*
X246654D02*
X267913Y416929D01*
X281594D01*
X64961Y288189D02*
X111417D01*
X70866Y311024D02*
X90551Y330709D01*
X70866Y294094D02*
Y311024D01*
X64961Y288189D02*
X70866Y294094D01*
D42*
X0Y234529D02*
X297521D01*
X0D02*
Y454447D01*
X297521D01*
Y234529D02*
Y454447D01*
D43*
X170610Y439626D02*
D03*
Y444626D02*
D03*
X175610Y439626D02*
D03*
Y444626D02*
D03*
X180610Y439626D02*
D03*
Y444626D02*
D03*
X185610Y439626D02*
D03*
Y444626D02*
D03*
X190610Y439626D02*
D03*
D44*
Y444626D02*
D03*
D45*
X290945Y410610D02*
D03*
Y436240D02*
D03*
D46*
X7995Y352854D02*
D03*
X17995Y347854D02*
D03*
X7995Y342854D02*
D03*
X17995Y337854D02*
D03*
X7503Y394783D02*
D03*
X17503Y389783D02*
D03*
X7503Y384783D02*
D03*
X17503Y379783D02*
D03*
X248605Y245138D02*
D03*
X238605Y250138D02*
D03*
X248605Y255138D02*
D03*
X238605Y260138D02*
D03*
X249294Y291890D02*
D03*
X239295Y296890D02*
D03*
X249294Y301890D02*
D03*
X239295Y306890D02*
D03*
X248999Y333622D02*
D03*
X238999Y338622D02*
D03*
X248999Y343622D02*
D03*
X238999Y348622D02*
D03*
D47*
X155512Y307086D02*
D03*
X169291D02*
D03*
X88583D02*
D03*
X102362D02*
D03*
X19980Y307480D02*
D03*
X33760D02*
D03*
D48*
X43898Y342520D02*
D03*
X275590Y303150D02*
D03*
Y381890D02*
D03*
D49*
X94882Y422047D02*
D03*
X221358Y426083D02*
D03*
X136024Y265354D02*
D03*
X68701Y282677D02*
D03*
X68898Y267421D02*
D03*
X111122Y409842D02*
D03*
X80709Y442126D02*
D03*
X73228Y446850D02*
D03*
X62598D02*
D03*
X74016Y439764D02*
D03*
X62598Y440551D02*
D03*
X180118Y282480D02*
D03*
X245866Y404035D02*
D03*
X224902Y431890D02*
D03*
X240059Y438189D02*
D03*
X141929Y285630D02*
D03*
X111417Y288189D02*
D03*
X206972Y368700D02*
D03*
X64961Y288189D02*
D03*
X90551Y330709D02*
D03*
X37008Y418012D02*
D03*
X67936Y426577D02*
D03*
X3937Y419783D02*
D03*
X10138Y419685D02*
D03*
X15650Y419783D02*
D03*
X3740Y413681D02*
D03*
X3839Y407972D02*
D03*
X10039Y413681D02*
D03*
X15551Y413779D02*
D03*
X10039Y408071D02*
D03*
X15650D02*
D03*
X195374Y370669D02*
D03*
X2756Y272736D02*
D03*
D50*
X84252Y416535D02*
D03*
X185827Y270472D02*
D03*
X200272Y402600D02*
D03*
X148302Y408637D02*
D03*
X149385Y426354D02*
D03*
X211772Y442500D02*
D03*
X239272Y388583D02*
D03*
X150369Y421038D02*
D03*
X163780Y277756D02*
D03*
X168110D02*
D03*
X172441D02*
D03*
X163780Y273425D02*
D03*
X168110D02*
D03*
X172441D02*
D03*
X163780Y269094D02*
D03*
X168110D02*
D03*
X172441D02*
D03*
X163780Y264764D02*
D03*
X168110D02*
D03*
X172441D02*
D03*
X92520Y280118D02*
D03*
X96850D02*
D03*
X101181D02*
D03*
X92520Y275787D02*
D03*
X96850D02*
D03*
X101181D02*
D03*
X92520Y271457D02*
D03*
X96850D02*
D03*
X101181D02*
D03*
X92520Y267126D02*
D03*
X96850D02*
D03*
X101181D02*
D03*
X27953Y279331D02*
D03*
X32283D02*
D03*
X36614D02*
D03*
X27953Y275000D02*
D03*
X32283D02*
D03*
X36614D02*
D03*
X27953Y270669D02*
D03*
X32283D02*
D03*
X36614D02*
D03*
X27953Y266339D02*
D03*
X32283D02*
D03*
X36614D02*
D03*
X261417Y423622D02*
D03*
X12402Y277165D02*
D03*
X43898Y294685D02*
D03*
X158169Y394488D02*
D03*
X162500D02*
D03*
X168405Y393701D02*
D03*
X172736Y394094D02*
D03*
X281594Y416929D02*
D03*
X68996Y332480D02*
D03*
X183760Y393062D02*
D03*
X228172Y401000D02*
D03*
X16227Y276673D02*
D03*
X26100Y287400D02*
D03*
X225098Y410630D02*
D03*
X229035Y392126D02*
D03*
X240417Y382283D02*
D03*
X242700Y385200D02*
D03*
X125295Y431201D02*
D03*
X75689Y332480D02*
D03*
X81595D02*
D03*
X78248Y343701D02*
D03*
X143130Y355709D02*
D03*
X191240Y392913D02*
D03*
X147613Y431294D02*
D03*
X141117Y408834D02*
D03*
X143130Y392323D02*
D03*
X214618Y437008D02*
D03*
X257670Y438189D02*
D03*
X270669Y423622D02*
D03*
X248130Y409842D02*
D03*
X254232Y397736D02*
D03*
X237500Y402756D02*
D03*
X241634Y360531D02*
D03*
X217372Y356153D02*
D03*
X241142Y318799D02*
D03*
X240846Y271654D02*
D03*
X200984Y377362D02*
D03*
X231693Y416936D02*
D03*
X226181Y443307D02*
D03*
D51*
X51181Y272441D02*
D03*
X113386Y272441D02*
D03*
X111417Y269685D02*
D03*
X40945Y268898D02*
D03*
X105512Y269685D02*
D03*
X183071Y267323D02*
D03*
X176772D02*
D03*
X47244Y268898D02*
D03*
D52*
X81693Y430020D02*
D03*
X93504D02*
D03*
X81595Y438091D02*
D03*
X93405D02*
D03*
M02*
