G04 Layer_Color=25308*
%FSLAX25Y25*%
%MOIN*%
G70*
G01*
G75*
%ADD11R,0.03937X0.04331*%
%ADD17R,0.04331X0.03937*%
%ADD42C,0.00394*%
%ADD43C,0.04000*%
%ADD44R,0.04000X0.04000*%
G04:AMPARAMS|DCode=45|XSize=55.12mil|YSize=98.43mil|CornerRadius=0mil|HoleSize=0mil|Usage=FLASHONLY|Rotation=90.000|XOffset=0mil|YOffset=0mil|HoleType=Round|Shape=Octagon|*
%AMOCTAGOND45*
4,1,8,-0.04921,-0.01378,-0.04921,0.01378,-0.03543,0.02756,0.03543,0.02756,0.04921,0.01378,0.04921,-0.01378,0.03543,-0.02756,-0.03543,-0.02756,-0.04921,-0.01378,0.0*
%
%ADD45OCTAGOND45*%

%ADD46C,0.07000*%
%ADD47C,0.04724*%
%ADD48C,0.06000*%
%ADD52R,0.04331X0.07087*%
D11*
X91043Y422146D02*
D03*
X84350D02*
D03*
D17*
X49606Y267913D02*
D03*
Y274606D02*
D03*
X44700Y267446D02*
D03*
Y260754D02*
D03*
X107300Y269847D02*
D03*
Y263154D02*
D03*
X113780Y267914D02*
D03*
Y274606D02*
D03*
X176600Y267547D02*
D03*
Y260854D02*
D03*
X184646Y266339D02*
D03*
Y273031D02*
D03*
D42*
X0Y234529D02*
X297521D01*
X0D02*
Y454447D01*
X297521D01*
Y234529D02*
Y454447D01*
D43*
X170610Y439626D02*
D03*
Y444626D02*
D03*
X175610Y439626D02*
D03*
Y444626D02*
D03*
X180610Y439626D02*
D03*
Y444626D02*
D03*
X185610Y439626D02*
D03*
Y444626D02*
D03*
X190610Y439626D02*
D03*
D44*
Y444626D02*
D03*
D45*
X290945Y410610D02*
D03*
Y436240D02*
D03*
D46*
X7995Y352854D02*
D03*
X17995Y347854D02*
D03*
X7995Y342854D02*
D03*
X17995Y337854D02*
D03*
X7503Y394783D02*
D03*
X17503Y389783D02*
D03*
X7503Y384783D02*
D03*
X17503Y379783D02*
D03*
X248605Y245138D02*
D03*
X238605Y250138D02*
D03*
X248605Y255138D02*
D03*
X238605Y260138D02*
D03*
X249294Y291890D02*
D03*
X239295Y296890D02*
D03*
X249294Y301890D02*
D03*
X239295Y306890D02*
D03*
X248999Y333622D02*
D03*
X238999Y338622D02*
D03*
X248999Y343622D02*
D03*
X238999Y348622D02*
D03*
D47*
X155512Y307086D02*
D03*
X169291D02*
D03*
X88583D02*
D03*
X102362D02*
D03*
X19980Y307480D02*
D03*
X33760D02*
D03*
D48*
X43898Y342520D02*
D03*
X275590Y303150D02*
D03*
Y381890D02*
D03*
D52*
X81693Y430020D02*
D03*
X93504D02*
D03*
X81595Y438091D02*
D03*
X93405D02*
D03*
M02*
