G04 Layer_Physical_Order=1*
G04 Layer_Color=25308*
%FSLAX25Y25*%
%MOIN*%
G70*
G01*
G75*
%ADD10R,0.07874X0.07087*%
%ADD11R,0.03937X0.04331*%
%ADD12R,0.03500X0.03200*%
%ADD13R,0.07087X0.04331*%
%ADD14O,0.07677X0.02362*%
%ADD15O,0.02362X0.07677*%
%ADD16R,0.04500X0.09000*%
%ADD17R,0.04331X0.03937*%
%ADD18R,0.05315X0.01575*%
%ADD19R,0.07480X0.07480*%
%ADD20R,0.05512X0.06299*%
%ADD21R,0.04724X0.02362*%
%ADD22R,0.09000X0.04500*%
%ADD23O,0.06102X0.02362*%
%ADD24R,0.08071X0.03937*%
%ADD25R,0.27165X0.22244*%
%ADD26R,0.19685X0.19685*%
%ADD27R,0.19685X0.19685*%
%ADD28O,0.05512X0.01772*%
%ADD29R,0.13386X0.19685*%
%ADD30R,0.03200X0.03500*%
%ADD31R,0.12598X0.08268*%
%ADD32R,0.03543X0.08268*%
%ADD33R,0.02362X0.04331*%
%ADD34R,0.02362X0.06496*%
%ADD35C,0.00787*%
%ADD36C,0.01575*%
%ADD37C,0.02756*%
%ADD38C,0.03937*%
%ADD39C,0.01024*%
%ADD40C,0.01181*%
%ADD41C,0.03150*%
%ADD42C,0.00394*%
%ADD43C,0.04000*%
%ADD44R,0.04000X0.04000*%
G04:AMPARAMS|DCode=45|XSize=55.12mil|YSize=98.43mil|CornerRadius=0mil|HoleSize=0mil|Usage=FLASHONLY|Rotation=90.000|XOffset=0mil|YOffset=0mil|HoleType=Round|Shape=Octagon|*
%AMOCTAGOND45*
4,1,8,-0.04921,-0.01378,-0.04921,0.01378,-0.03543,0.02756,0.03543,0.02756,0.04921,0.01378,0.04921,-0.01378,0.03543,-0.02756,-0.03543,-0.02756,-0.04921,-0.01378,0.0*
%
%ADD45OCTAGOND45*%

%ADD46C,0.07000*%
%ADD47C,0.04724*%
%ADD48C,0.06000*%
%ADD49C,0.05000*%
%ADD50C,0.02362*%
%ADD51C,0.01772*%
G36*
X120789Y264832D02*
X120989Y264632D01*
Y238032D01*
X109389D01*
X109189Y237832D01*
X106089Y240932D01*
Y262485D01*
X111112D01*
X111112Y262485D01*
X111112Y262485D01*
X111267Y262515D01*
X111419Y262546D01*
X111419Y262546D01*
X111420Y262546D01*
X111550Y262633D01*
X111680Y262720D01*
X111680Y262720D01*
X111680Y262720D01*
X112109Y263149D01*
X112109Y263149D01*
X112109Y263149D01*
X112198Y263282D01*
X112283Y263410D01*
X112283Y263410D01*
X112283Y263410D01*
X112312Y263561D01*
X112343Y263717D01*
X112343Y263717D01*
X112343Y263717D01*
X112341Y265487D01*
X112318Y265603D01*
X112306Y265720D01*
X112288Y265755D01*
X112280Y265794D01*
X112214Y265892D01*
X112159Y265996D01*
X112128Y266021D01*
X112105Y266055D01*
X112007Y266120D01*
X111916Y266195D01*
X111475Y266430D01*
X111363Y266464D01*
X111254Y266509D01*
X111214D01*
X111176Y266521D01*
X111058Y266509D01*
X110941D01*
X110904Y266494D01*
X110864Y266490D01*
X110760Y266434D01*
X110701Y266410D01*
X110421Y266354D01*
X110335Y266371D01*
X106594D01*
X106565Y266366D01*
X106128Y266656D01*
X106232Y267807D01*
X106595Y268077D01*
X110335D01*
X110702Y268150D01*
X110765Y268109D01*
X111417Y267979D01*
X112070Y268109D01*
X112554Y268432D01*
X117189D01*
X120789Y264832D01*
D02*
G37*
G36*
X70669Y285236D02*
X71457Y285236D01*
X72638Y283757D01*
Y280498D01*
X72031Y279536D01*
X70995Y278937D01*
X70472D01*
X69685Y278937D01*
X68170D01*
X64107Y283000D01*
X64893Y284726D01*
X65011Y284880D01*
X65819Y284986D01*
X66422Y285236D01*
X70669D01*
D02*
G37*
G36*
X54051Y238697D02*
X44996D01*
X44602Y239090D01*
X41452Y242240D01*
Y251689D01*
X41211Y261361D01*
X41577Y261701D01*
X47088Y261148D01*
X47109Y261150D01*
X47128Y261145D01*
X47264Y261165D01*
X47400Y261178D01*
X47418Y261188D01*
X47438Y261191D01*
X47556Y261261D01*
X47677Y261325D01*
X47690Y261341D01*
X47707Y261351D01*
X48078Y261687D01*
X48090Y261703D01*
X48107Y261714D01*
X48183Y261828D01*
X48265Y261938D01*
X48270Y261958D01*
X48281Y261975D01*
X48308Y262109D01*
X48341Y262242D01*
X48338Y262262D01*
X48342Y262282D01*
Y265177D01*
X48334Y265216D01*
X48338Y265255D01*
X48304Y265368D01*
X48281Y265484D01*
X48259Y265517D01*
X48247Y265555D01*
X48173Y265647D01*
X48107Y265744D01*
X48074Y265767D01*
X48049Y265797D01*
X47945Y265853D01*
X47847Y265919D01*
X47807Y265926D01*
X47772Y265945D01*
X47272Y266097D01*
X47233Y266101D01*
X47196Y266116D01*
X47078D01*
X46961Y266127D01*
X46923Y266116D01*
X46883D01*
X46774Y266071D01*
X46661Y266037D01*
X46630Y266011D01*
X46593Y265996D01*
X46510Y265913D01*
X46419Y265838D01*
X46408Y265818D01*
X46107Y265617D01*
X45854Y265567D01*
X45768Y265584D01*
X42028D01*
X41941Y265567D01*
X41688Y265617D01*
X41400Y265809D01*
X41208Y266097D01*
X41140Y266437D01*
X41239Y266933D01*
Y267009D01*
X41254Y267083D01*
X41584Y267310D01*
X41676Y267349D01*
X41701Y267355D01*
X42028Y267290D01*
X45768D01*
X46420Y267420D01*
X46432Y267428D01*
X46591Y267321D01*
X47244Y267192D01*
X47897Y267321D01*
X48069Y267437D01*
X54051D01*
Y238697D01*
D02*
G37*
G36*
X121029Y420054D02*
X119929Y418086D01*
X117102D01*
Y415960D01*
X116976Y415656D01*
X116881Y414936D01*
Y410969D01*
X110633Y404721D01*
X110191Y404146D01*
X109914Y403475D01*
X108094Y403961D01*
Y417611D01*
X110573Y420090D01*
X121007D01*
X121029Y420054D01*
D02*
G37*
G36*
X147368Y335690D02*
X148898Y334569D01*
X148894Y334547D01*
X148894Y334547D01*
Y290242D01*
X148622Y288386D01*
X146926Y288386D01*
X143738D01*
X143587Y288501D01*
X142787Y288833D01*
X141929Y288946D01*
X141071Y288833D01*
X140271Y288501D01*
X140121Y288386D01*
X135236D01*
Y288038D01*
X130722D01*
X128868Y289892D01*
X128087Y290414D01*
X127165Y290598D01*
X113679D01*
X113075Y291060D01*
X112276Y291392D01*
X111417Y291505D01*
X110559Y291392D01*
X109759Y291060D01*
X109073Y290534D01*
X108546Y289847D01*
X108214Y289047D01*
X108101Y288189D01*
X108214Y287331D01*
X108319Y287078D01*
X107471Y286230D01*
X107167Y285774D01*
X107060Y285236D01*
Y284285D01*
X106594D01*
X106595D01*
X105942Y284155D01*
X105941Y284155D01*
X105388Y283785D01*
X105059Y283292D01*
X105059Y283292D01*
Y283292D01*
X105058Y283291D01*
X105018Y283232D01*
X105018Y283232D01*
X104985Y283063D01*
X104985Y283063D01*
X104888Y282579D01*
X105018Y281926D01*
X105388Y281372D01*
X105942Y281003D01*
X106594Y280873D01*
X110335D01*
X110987Y281003D01*
X111078Y281063D01*
X111519Y280828D01*
X111520Y279933D01*
X110685Y279097D01*
X110335Y279167D01*
X106594D01*
X105942Y279037D01*
X105388Y278667D01*
X105018Y278114D01*
X104888Y277461D01*
X105018Y276808D01*
X105388Y276254D01*
Y276108D01*
X105018Y275554D01*
X104888Y274902D01*
X105018Y274249D01*
X105388Y273695D01*
Y273549D01*
X105018Y272995D01*
X104888Y272343D01*
X104997Y271798D01*
X104859Y271261D01*
X104306Y270891D01*
X103936Y270338D01*
X103806Y269685D01*
X103936Y269032D01*
X104306Y268479D01*
X104660Y268242D01*
X104875Y268023D01*
X104959Y267579D01*
X104888Y267224D01*
X105018Y266571D01*
X105388Y266018D01*
X105942Y265648D01*
X106594Y265518D01*
X110335D01*
X110987Y265648D01*
X111097Y265722D01*
X111538Y265486D01*
X111541Y263716D01*
X111112Y263287D01*
X106089D01*
X105782Y263226D01*
X105521Y263052D01*
X105347Y262792D01*
X105286Y262485D01*
Y259463D01*
X103894Y258071D01*
X95276D01*
X95031Y258071D01*
X93893Y258461D01*
X92940Y259085D01*
X92940Y259085D01*
X91204Y262823D01*
X91122Y262936D01*
X91044Y263052D01*
X91030Y263062D01*
X91020Y263076D01*
X90900Y263148D01*
X90784Y263226D01*
X90767Y263230D01*
X90752Y263239D01*
X90614Y263260D01*
X90476Y263287D01*
X88799D01*
X88532Y263787D01*
X88683Y264013D01*
X88812Y264665D01*
X88683Y265318D01*
X88313Y265872D01*
X87759Y266242D01*
X87106Y266371D01*
X83366D01*
X83359Y266370D01*
X82972Y266687D01*
Y267762D01*
X83359Y268079D01*
X83366Y268077D01*
X87106D01*
X87759Y268207D01*
X88313Y268577D01*
X88683Y269130D01*
X88812Y269783D01*
X88683Y270436D01*
X88313Y270990D01*
Y271136D01*
X88683Y271690D01*
X88812Y272343D01*
X88683Y272995D01*
X88313Y273549D01*
Y273695D01*
X88683Y274249D01*
X88812Y274902D01*
X88683Y275554D01*
X88313Y276108D01*
Y276254D01*
X88683Y276808D01*
X88812Y277461D01*
X88683Y278114D01*
X88313Y278667D01*
Y278813D01*
X88683Y279367D01*
X88812Y280020D01*
X88683Y280673D01*
X88523Y280911D01*
X88346Y281299D01*
X88523Y281687D01*
X88683Y281926D01*
X88812Y282579D01*
X88716Y283063D01*
X88716Y283063D01*
X88683Y283232D01*
Y283232D01*
X88681Y283234D01*
X88643Y283291D01*
X88642Y283292D01*
X88503Y283500D01*
X88503Y283500D01*
X88313Y283785D01*
X88313Y283785D01*
X87759Y284155D01*
Y284155D01*
X87759Y284155D01*
X87113Y284284D01*
X87106Y284285D01*
X87106D01*
X85166Y284352D01*
X83488Y286031D01*
Y287395D01*
X88689Y292596D01*
X103642D01*
X103642Y292596D01*
X104103Y292687D01*
X104494Y292949D01*
X147275Y335730D01*
X147368Y335690D01*
D02*
G37*
G36*
X111168Y307851D02*
X100421Y297104D01*
X88230D01*
X87769Y297013D01*
X87378Y296751D01*
X80118Y289491D01*
X79140Y289660D01*
X78150Y290208D01*
Y291142D01*
X73425D01*
X72638Y291142D01*
X72047D01*
X71457D01*
X70669Y291142D01*
X66422D01*
X65819Y291392D01*
X64961Y291505D01*
X64102Y291392D01*
X63303Y291060D01*
X62927Y290772D01*
X55708D01*
X55413Y290733D01*
X55118Y290772D01*
X48536D01*
X47047Y291929D01*
X47047Y292740D01*
Y297441D01*
X41142D01*
Y292717D01*
X41142Y291929D01*
X40371Y290280D01*
X36202D01*
Y290453D01*
X31478D01*
X30691Y290453D01*
X30100D01*
X29509D01*
X28722Y290453D01*
X27528D01*
X26774Y292271D01*
X44322Y309819D01*
X98035D01*
X98292Y309633D01*
X99290Y307916D01*
X99286Y307851D01*
X99186Y307086D01*
X99294Y306264D01*
X99611Y305498D01*
X100116Y304840D01*
X100774Y304335D01*
X101540Y304018D01*
X102362Y303910D01*
X103184Y304018D01*
X103951Y304335D01*
X104609Y304840D01*
X105113Y305498D01*
X105431Y306264D01*
X105539Y307086D01*
X105438Y307851D01*
X105435Y307916D01*
X106432Y309633D01*
X106690Y309819D01*
X110352D01*
X111168Y307851D01*
D02*
G37*
G36*
X160720Y336745D02*
Y298300D01*
X160815Y297581D01*
X161093Y296910D01*
X161535Y296335D01*
X175365Y282504D01*
X176319Y280930D01*
X176318Y280929D01*
Y280929D01*
X176278Y280869D01*
X176278Y280869D01*
X176214Y280545D01*
X176186Y280405D01*
X176186Y280405D01*
X176148Y280217D01*
X176278Y279564D01*
X176648Y279010D01*
X177201Y278640D01*
X177854Y278510D01*
X181594D01*
X182247Y278640D01*
X182360Y278715D01*
X182801Y278480D01*
Y277591D01*
X181945Y276735D01*
X181594Y276804D01*
X177854D01*
X177201Y276675D01*
X176648Y276305D01*
X176278Y275751D01*
X176148Y275098D01*
X176278Y274446D01*
X176438Y274207D01*
X176615Y273819D01*
X176438Y273431D01*
X176278Y273192D01*
X176148Y272539D01*
X176278Y271886D01*
X176438Y271648D01*
X176615Y271260D01*
X176438Y270872D01*
X176278Y270633D01*
X176148Y269980D01*
X176257Y269436D01*
X176119Y268899D01*
X175565Y268529D01*
X175196Y267976D01*
X175066Y267323D01*
X175196Y266670D01*
X175565Y266116D01*
X175920Y265879D01*
X176278Y265515D01*
X176148Y264862D01*
X176278Y264209D01*
X176648Y263656D01*
X177201Y263286D01*
X177854Y263156D01*
X181594D01*
X182247Y263286D01*
X182360Y263361D01*
X182801Y263126D01*
Y261097D01*
X181019D01*
X180879Y260908D01*
X180809Y260862D01*
X180635Y260601D01*
X180574Y260294D01*
Y258661D01*
X166535D01*
Y237992D01*
X166535Y237402D01*
X165138Y236024D01*
X165138Y236024D01*
X163602D01*
X162205Y237402D01*
X162205Y237992D01*
Y258661D01*
X162071D01*
Y260294D01*
X162010Y260601D01*
X161836Y260862D01*
X161575Y261036D01*
X161491Y261097D01*
X160103D01*
X159867Y261538D01*
X159942Y261650D01*
X160072Y262303D01*
X159942Y262956D01*
X159573Y263509D01*
X159019Y263879D01*
X158366Y264009D01*
X154626D01*
X154483Y264125D01*
X154465Y265282D01*
X154959Y265715D01*
X158366D01*
X159019Y265845D01*
X159573Y266215D01*
X159942Y266768D01*
X160072Y267421D01*
X159942Y268074D01*
X159573Y268628D01*
Y268774D01*
X159942Y269327D01*
X160072Y269980D01*
X159942Y270633D01*
X159573Y271187D01*
Y271333D01*
D01*
X159942Y271886D01*
X160072Y272539D01*
X159942Y273192D01*
X159573Y273746D01*
Y273892D01*
X159942Y274446D01*
X160072Y275098D01*
X159942Y275751D01*
X159573Y276305D01*
Y276451D01*
X159942Y277005D01*
X160072Y277658D01*
X159942Y278310D01*
X159573Y278864D01*
Y279010D01*
X159942Y279564D01*
X160072Y280217D01*
X160035Y280405D01*
X159942Y280869D01*
X159573Y281423D01*
X159019Y281793D01*
X158366Y281923D01*
X154626D01*
X153141Y283174D01*
X152976Y283449D01*
Y331785D01*
X158752Y337561D01*
X160720Y336745D01*
D02*
G37*
G36*
X40376Y283792D02*
X40491Y283366D01*
X40541D01*
X40733Y282866D01*
X40451Y282444D01*
X40321Y281791D01*
X40451Y281138D01*
X40821Y280585D01*
X41375Y280215D01*
X42028Y280085D01*
X45768D01*
X46420Y280215D01*
X46974Y280585D01*
X47039Y280683D01*
X47539Y280531D01*
Y279731D01*
X46185Y278377D01*
X45777D01*
X45768Y278379D01*
X42028D01*
X41375Y278249D01*
X40821Y277880D01*
X40451Y277326D01*
X40321Y276673D01*
X40451Y276020D01*
X40611Y275781D01*
X40788Y275394D01*
X40611Y275006D01*
X40451Y274767D01*
X40321Y274114D01*
X40451Y273461D01*
X40611Y273222D01*
X40788Y272835D01*
X40611Y272447D01*
X40451Y272208D01*
X40321Y271555D01*
X40430Y271011D01*
X40292Y270474D01*
X39739Y270104D01*
X39594Y269888D01*
D01*
X39451Y269673D01*
X39369Y269550D01*
X39239Y268898D01*
X39253Y268826D01*
D01*
X39355Y268313D01*
X39369Y268245D01*
X39739Y267691D01*
X39971Y267536D01*
X40292Y267321D01*
X40292Y267321D01*
X40298Y267246D01*
X40451Y267090D01*
X40321Y266437D01*
X40451Y265784D01*
X40732Y265363D01*
D01*
X40804Y265256D01*
X40821Y265231D01*
X41242Y264949D01*
D01*
X41326Y264893D01*
X41375Y264861D01*
X42028Y264731D01*
X45768D01*
X46420Y264861D01*
X46974Y265231D01*
X47039Y265329D01*
X47539Y265177D01*
Y262282D01*
X47169Y261947D01*
X41657Y262500D01*
X41641Y262498D01*
X41639Y262498D01*
X41638Y262498D01*
X41635Y262498D01*
D01*
X41633Y262498D01*
X41633Y262498D01*
X41632Y262498D01*
X41632Y262498D01*
X41624Y262500D01*
X41622Y262500D01*
X41620Y262501D01*
X41618Y262501D01*
X41617Y262501D01*
X41617Y262501D01*
X41615Y262502D01*
X41615Y262502D01*
X41615Y262502D01*
X41611Y262503D01*
X41610Y262503D01*
X41610Y262503D01*
X41608Y262503D01*
X41607Y262504D01*
X41607Y262504D01*
X41607Y262504D01*
X41525Y262490D01*
X41511Y262488D01*
X41493Y262485D01*
Y262485D01*
X41481Y262483D01*
X41480Y262483D01*
X41480Y262483D01*
X41477Y262483D01*
X41477Y262483D01*
X41399Y262475D01*
X41387Y262474D01*
X41378Y262473D01*
X41365Y262472D01*
X41365Y262472D01*
X41352Y262471D01*
X41349Y262470D01*
X41348Y262470D01*
X41346Y262470D01*
X41346Y262470D01*
X41323Y262458D01*
X41306Y262455D01*
X41303Y262455D01*
X41301Y262455D01*
X41298Y262454D01*
X41298Y262454D01*
X41186Y262385D01*
X41069Y262323D01*
X41053Y262303D01*
X41031Y262290D01*
X40665Y261950D01*
X40650Y261929D01*
X40629Y261914D01*
X40558Y261803D01*
X40481Y261696D01*
X40481Y261696D01*
X40480Y261691D01*
X40479Y261689D01*
X40475Y261671D01*
X40462Y261650D01*
X40461Y261650D01*
X40461Y261647D01*
X40461Y261646D01*
X40460Y261644D01*
X40458Y261631D01*
X40458Y261631D01*
X40455Y261614D01*
X40454Y261609D01*
X40452Y261596D01*
X40439Y261520D01*
X40439Y261520D01*
X40434Y261498D01*
X40430Y261484D01*
X40408Y261391D01*
X40408Y261391D01*
X40408Y261391D01*
X40408Y261391D01*
X40409Y261390D01*
X40409Y261390D01*
X40409Y261390D01*
X40409Y261389D01*
X40409Y261388D01*
X40409Y261387D01*
X40409Y261384D01*
X40410Y261383D01*
X40410Y261382D01*
X40410Y261379D01*
X40411Y261377D01*
X40411Y261375D01*
X40412Y261366D01*
X40412Y261366D01*
X40412Y261366D01*
X40412Y261365D01*
X40412Y261363D01*
X40412Y261363D01*
X40411Y261360D01*
X40411Y261359D01*
X40411Y261357D01*
X40408Y261341D01*
X40408Y261341D01*
X40408Y261341D01*
X40408Y261340D01*
Y261340D01*
X40408Y261339D01*
X40408Y261331D01*
Y261330D01*
X40408Y261329D01*
X40409Y261317D01*
X40409Y261301D01*
X40414Y261114D01*
X40414Y261108D01*
D01*
X40414Y261104D01*
X40414Y261104D01*
X40414Y261104D01*
Y261104D01*
Y261103D01*
Y261103D01*
X40414Y261103D01*
X40459Y259283D01*
X39085Y257874D01*
X30315D01*
X30152D01*
X28346Y258268D01*
X28225D01*
X27998D01*
X27190Y258646D01*
X24266Y262212D01*
Y263904D01*
X24253Y263969D01*
X24256Y263997D01*
X24232Y264078D01*
X24205Y264211D01*
X24199Y264227D01*
X24180Y264255D01*
X24170Y264256D01*
X24115Y264531D01*
X24027Y264664D01*
D01*
X23993Y264714D01*
X23746Y265084D01*
X23325Y265366D01*
D01*
X23240Y265422D01*
X23192Y265454D01*
X22539Y265584D01*
X18799D01*
X18701Y265665D01*
Y267209D01*
X18799Y267290D01*
X22539D01*
X23192Y267420D01*
X23746Y267790D01*
X24115Y268343D01*
X24245Y268996D01*
X24115Y269649D01*
X23956Y269888D01*
X23779Y270276D01*
X23956Y270663D01*
X24115Y270902D01*
X24245Y271555D01*
X24115Y272208D01*
X23956Y272447D01*
X23779Y272835D01*
X23956Y273222D01*
X24115Y273461D01*
X24245Y274114D01*
X24115Y274767D01*
X23956Y275006D01*
X23779Y275394D01*
X23956Y275781D01*
X24115Y276020D01*
X24245Y276673D01*
X24115Y277326D01*
X23956Y277565D01*
X23779Y277953D01*
X23956Y278340D01*
X24115Y278579D01*
X24245Y279232D01*
X24115Y279885D01*
X23746Y280438D01*
Y280585D01*
X24115Y281138D01*
X24245Y281791D01*
X24115Y282444D01*
X23833Y282866D01*
X24026Y283366D01*
X24379D01*
X24407Y283693D01*
X24531Y284054D01*
X24897Y284547D01*
X28722D01*
X29509Y284547D01*
X30100D01*
X30691D01*
X31478Y284547D01*
X36202D01*
Y284720D01*
X39856D01*
X40376Y283792D01*
D02*
G37*
G36*
X87941Y264933D02*
X87994Y264665D01*
X87926Y264326D01*
X87865Y264233D01*
X87819Y264124D01*
X87764Y264020D01*
X87760Y263981D01*
X87745Y263944D01*
Y263826D01*
X87733Y263709D01*
X87745Y263671D01*
Y263631D01*
X87790Y263522D01*
X87824Y263409D01*
X88091Y262909D01*
X88166Y262818D01*
X88232Y262720D01*
X88265Y262698D01*
X88290Y262667D01*
X88394Y262611D01*
X88492Y262546D01*
X88531Y262538D01*
X88566Y262519D01*
X88684Y262508D01*
X88799Y262485D01*
X90476D01*
X92394Y258354D01*
X92075Y257854D01*
X75472D01*
X73232Y257782D01*
X73071Y258256D01*
X82972Y265354D01*
X87372D01*
X87941Y264933D01*
D02*
G37*
G36*
X128021Y283927D02*
X128803Y283405D01*
X129724Y283221D01*
X134174D01*
X134174Y283221D01*
X135236Y281693D01*
X135236Y280906D01*
Y276181D01*
X139242D01*
X142717Y272707D01*
Y268307D01*
Y262795D01*
X143131D01*
X143884Y260977D01*
X141569Y258661D01*
X140945D01*
Y258010D01*
X140826Y257833D01*
X140765Y257525D01*
Y248372D01*
X140826Y248064D01*
X140945Y247887D01*
Y237992D01*
X140945Y237402D01*
X139548Y236024D01*
X139547Y236024D01*
X122781D01*
X122472Y236388D01*
X122166Y236940D01*
X121784Y237992D01*
X121792Y238032D01*
Y264632D01*
X121731Y264940D01*
X121557Y265200D01*
X121557Y265200D01*
X121357Y265400D01*
X117757Y269000D01*
X117496Y269174D01*
X117189Y269235D01*
X115143D01*
X114546Y271204D01*
X114592Y271235D01*
X114962Y271788D01*
X114962Y271788D01*
X114976Y271860D01*
X115092Y272441D01*
Y272441D01*
X116816Y273031D01*
X119488D01*
Y278543D01*
X119488Y278543D01*
X119488Y278543D01*
Y279725D01*
X119488D01*
X119488Y279725D01*
Y283812D01*
X119488Y285236D01*
X121231Y285781D01*
X126168D01*
X128021Y283927D01*
D02*
G37*
G36*
X182418Y265747D02*
X183071Y265617D01*
X183724Y265747D01*
X183765Y265774D01*
X191877Y265123D01*
Y237923D01*
X191777Y237823D01*
X181377D01*
Y260294D01*
X182801D01*
X183108Y260355D01*
X183369Y260529D01*
X183543Y260789D01*
X183604Y261097D01*
Y263126D01*
X183581Y263241D01*
X183569Y263359D01*
X183550Y263394D01*
X183543Y263433D01*
X183477Y263531D01*
X183421Y263635D01*
X183391Y263660D01*
X183369Y263693D01*
X183270Y263759D01*
X183179Y263834D01*
X182738Y264069D01*
X182625Y264104D01*
X182516Y264149D01*
X182477D01*
X182439Y264160D01*
X182321Y264149D01*
X182203D01*
X182166Y264134D01*
X182127Y264130D01*
X182023Y264074D01*
X181958Y264047D01*
X181681Y263992D01*
X181594Y264009D01*
X178591D01*
X177948Y264652D01*
X177877Y265123D01*
X177877Y265123D01*
X178039Y265715D01*
X181594D01*
X182247Y265845D01*
X182259Y265853D01*
X182418Y265747D01*
D02*
G37*
G36*
X295300Y453058D02*
Y452566D01*
Y439100D01*
X296572D01*
Y407600D01*
X295300Y407579D01*
Y235539D01*
X208784D01*
X208587Y235735D01*
Y287704D01*
X189000Y307291D01*
Y370283D01*
X137918D01*
Y451764D01*
X139310Y453156D01*
X295300Y453058D01*
D02*
G37*
G36*
X64960Y275334D02*
Y273031D01*
X69685D01*
X70472Y273031D01*
X71063D01*
X71653D01*
X72441Y273031D01*
X76574D01*
X76824Y272932D01*
X77109Y272638D01*
X76295Y270717D01*
X76238Y270669D01*
X75394D01*
Y264764D01*
X77555D01*
X78157Y262890D01*
X72604Y258908D01*
X72577Y258879D01*
X72542Y258859D01*
X72470Y258766D01*
X72390Y258679D01*
X72383Y258661D01*
X72047D01*
Y237992D01*
X72047Y237402D01*
X70650Y236024D01*
X70649Y236024D01*
X54739D01*
X54358Y237955D01*
X54619Y238129D01*
X54793Y238389D01*
X54854Y238697D01*
Y267437D01*
X54793Y267744D01*
X54619Y268004D01*
X54358Y268178D01*
X54051Y268239D01*
X51455D01*
X50522Y269331D01*
X50639Y269613D01*
X51422Y270783D01*
X51834Y270865D01*
X52387Y271235D01*
X52757Y271788D01*
X52757Y271788D01*
X52771Y271860D01*
X52772Y271860D01*
X52772Y271860D01*
X52887Y272441D01*
X54657Y273524D01*
X55906D01*
Y279035D01*
X55906Y279035D01*
X55906D01*
Y279035D01*
Y280217D01*
X56215Y281460D01*
X58171Y282124D01*
X64960Y275334D01*
D02*
G37*
G36*
X4304Y447081D02*
X53604D01*
Y425057D01*
X53304Y424681D01*
X26304D01*
Y425081D01*
X21204Y430181D01*
X21104Y430281D01*
X1362D01*
X1013Y430639D01*
X1488Y449248D01*
X1952Y449433D01*
X4304Y447081D01*
D02*
G37*
G36*
X134153Y365945D02*
X185335D01*
Y306890D01*
X205020Y287205D01*
X205020D01*
Y236024D01*
X193862D01*
X193610Y236260D01*
X192680Y237923D01*
Y237923D01*
X192680Y237992D01*
Y265123D01*
X192656Y265245D01*
X192641Y265370D01*
X192625Y265398D01*
X192619Y265430D01*
X192549Y265534D01*
X192488Y265643D01*
X192463Y265663D01*
X192445Y265690D01*
X192341Y265760D01*
X192243Y265837D01*
X192211Y265846D01*
X192184Y265864D01*
X192062Y265889D01*
X191941Y265923D01*
X186591Y266353D01*
X186488Y266407D01*
X186340Y266795D01*
X186595Y268618D01*
X187246Y269053D01*
X187681Y269704D01*
X187834Y270472D01*
X189626Y271555D01*
X192421D01*
Y277067D01*
X192421Y277067D01*
Y277067D01*
Y278248D01*
X192421D01*
X192421Y279035D01*
Y283760D01*
X186516D01*
Y281337D01*
X185087Y280004D01*
X184802Y280038D01*
X184051Y280421D01*
X183130Y280930D01*
X183189Y281143D01*
X183321Y281622D01*
X183434Y282480D01*
X183434Y282480D01*
X183393Y282789D01*
X183321Y283338D01*
X182990Y284138D01*
X182463Y284825D01*
X181776Y285352D01*
X180976Y285683D01*
X180118Y285796D01*
X179956Y285775D01*
X166280Y299451D01*
Y302946D01*
X166754Y303409D01*
X168248Y304110D01*
X168469Y304018D01*
X169291Y303910D01*
X170114Y304018D01*
X170880Y304335D01*
X171538Y304840D01*
X172043Y305498D01*
X172360Y306264D01*
X172468Y307086D01*
X172360Y307909D01*
X172043Y308675D01*
X171538Y309333D01*
X170880Y309838D01*
X170114Y310155D01*
X169291Y310263D01*
X168469Y310155D01*
X168248Y310064D01*
X166754Y310764D01*
X166280Y311227D01*
Y337049D01*
X175861Y346630D01*
X178248D01*
X178429Y346654D01*
X181201D01*
Y352166D01*
X180098D01*
Y359744D01*
X176161D01*
Y359744D01*
X175098D01*
Y359744D01*
X172067D01*
X171161Y359744D01*
X171161Y359744D01*
X170098D01*
Y359744D01*
X170098Y359744D01*
X167067D01*
X166161Y359744D01*
X165630D01*
X165098D01*
X164193Y359744D01*
X162067D01*
X161161Y359744D01*
X161161Y359744D01*
X160098D01*
Y359744D01*
X160098Y359744D01*
X157067D01*
X156161Y359744D01*
X156161Y359744D01*
X155098D01*
Y359744D01*
X155098Y359744D01*
X151161D01*
Y359744D01*
X150098D01*
Y359744D01*
X146161D01*
Y351900D01*
X108458Y314196D01*
X32792D01*
X32792Y314196D01*
X32331Y314105D01*
X31941Y313844D01*
X31941Y313844D01*
X15349Y297252D01*
X15087Y296861D01*
X14996Y296400D01*
X14996Y296400D01*
Y280650D01*
X14996Y280650D01*
X15087Y280190D01*
X15121Y280038D01*
X14034Y278671D01*
X13958Y278606D01*
X13588Y278740D01*
X13218Y278987D01*
X13170Y279020D01*
X12402Y279172D01*
X12402Y279172D01*
X12390Y279170D01*
X11633Y279020D01*
X10982Y278585D01*
X10961Y278553D01*
X8591D01*
Y274521D01*
X8591Y272596D01*
X8591Y272553D01*
D01*
X8591D01*
X8591Y272553D01*
Y266647D01*
X12584D01*
X13488Y264679D01*
X7982Y258268D01*
X7087D01*
Y237992D01*
X7087Y237008D01*
X5526Y236024D01*
X5526Y236024D01*
X1689D01*
X298Y237417D01*
X619Y378654D01*
X2590Y379467D01*
X13586Y368471D01*
X13727Y367835D01*
X13697Y367423D01*
X13293Y365980D01*
X7144Y359831D01*
X6883Y359440D01*
X6791Y358980D01*
X6791Y358980D01*
Y356996D01*
X5833Y356599D01*
X4938Y355912D01*
X4250Y355016D01*
X3818Y353973D01*
X3671Y352854D01*
X3818Y351735D01*
X4250Y350692D01*
X4938Y349796D01*
X5833Y349109D01*
X6876Y348677D01*
X7995Y348530D01*
X9115Y348677D01*
X10158Y349109D01*
X11053Y349796D01*
X11740Y350692D01*
X12172Y351735D01*
X12320Y352854D01*
X12238Y353473D01*
X12257Y353505D01*
X13358Y354504D01*
X13970Y354778D01*
X14106Y354722D01*
X15082Y354594D01*
X16058Y354722D01*
X16968Y355099D01*
X17749Y355698D01*
X18349Y356480D01*
X18726Y357390D01*
X18854Y358366D01*
X18726Y359342D01*
X18349Y360252D01*
X17749Y361034D01*
X16968Y361633D01*
X16415Y363774D01*
X16438Y363891D01*
X16604Y364166D01*
X16772Y364248D01*
X64075D01*
X64075Y364248D01*
X64536Y364340D01*
X64926Y364601D01*
X69193Y368868D01*
X71161Y368052D01*
Y361220D01*
X85335D01*
Y368886D01*
X85827Y370745D01*
X86288Y370836D01*
X86678Y371097D01*
X107741Y392160D01*
X107741Y392160D01*
X109437Y391154D01*
X109819Y390846D01*
Y381565D01*
X85338Y357084D01*
X84896Y356508D01*
X84618Y355838D01*
X84523Y355118D01*
Y343701D01*
X84618Y342981D01*
X84744Y342677D01*
Y338780D01*
X85508D01*
Y332480D01*
X85532Y332300D01*
Y329527D01*
X87482D01*
X87680Y329051D01*
X88207Y328364D01*
X88893Y327837D01*
X89693Y327506D01*
X90551Y327393D01*
X91409Y327506D01*
X92209Y327837D01*
X92896Y328364D01*
X93423Y329051D01*
X93754Y329851D01*
X93867Y330709D01*
X93754Y331567D01*
X93423Y332366D01*
X92896Y333053D01*
X92209Y333580D01*
X91409Y333911D01*
X91067Y333957D01*
Y338953D01*
X97933D01*
X98114Y338976D01*
X100886D01*
Y343701D01*
X102168Y345261D01*
X102602Y345523D01*
X102663Y345541D01*
X107407D01*
Y350616D01*
X102632D01*
X102632Y350616D01*
Y350616D01*
X102632Y350616D01*
X100886Y351152D01*
Y351181D01*
X94980D01*
Y346480D01*
X94980Y345669D01*
X93491Y344512D01*
X90423D01*
X90253Y344682D01*
X90083Y344852D01*
Y353967D01*
X114564Y378448D01*
X115006Y379024D01*
X115283Y379694D01*
X115378Y380413D01*
Y401605D01*
X121626Y407853D01*
X122068Y408428D01*
X122345Y409099D01*
X122440Y409818D01*
Y412180D01*
X122613D01*
Y412809D01*
X122843Y413148D01*
X124483Y414287D01*
X128224D01*
X128992Y414440D01*
X129643Y414875D01*
X130078Y415526D01*
X130231Y416294D01*
X130078Y417063D01*
X129643Y417714D01*
X129641Y417719D01*
Y419870D01*
X129643Y419875D01*
X130078Y420526D01*
X130231Y421294D01*
X130078Y422062D01*
X129643Y422714D01*
X129641Y422719D01*
Y424870D01*
X129643Y424875D01*
X130078Y425526D01*
X130231Y426294D01*
X130078Y427063D01*
X129643Y427714D01*
X128992Y428149D01*
X128224Y428301D01*
X124483D01*
X123715Y428149D01*
X123064Y427714D01*
X122921Y427499D01*
X112121D01*
X111660Y427407D01*
X111270Y427146D01*
X103971Y419848D01*
X103710Y419457D01*
X103619Y418996D01*
X103619Y418996D01*
Y393707D01*
X99988Y390077D01*
X97462Y390246D01*
X97077Y390681D01*
X97169Y391142D01*
X97077Y391603D01*
X96949Y391795D01*
Y393110D01*
X96949Y393898D01*
X96949Y393898D01*
Y395079D01*
X96949D01*
X96949Y395079D01*
Y400591D01*
X95562D01*
X95500Y400906D01*
X95479Y401008D01*
X95131Y401529D01*
X95131Y401529D01*
X93542Y403119D01*
Y408268D01*
X82125D01*
Y407137D01*
X81693Y406849D01*
X80176Y407487D01*
X79724Y407901D01*
Y413189D01*
X79724D01*
X79458Y414436D01*
X80156Y415070D01*
X82125Y414199D01*
Y412992D01*
X89802D01*
Y414993D01*
X89873Y415100D01*
X90041Y415945D01*
Y419254D01*
X89873Y420098D01*
X89394Y420815D01*
X87782Y422427D01*
X87065Y422906D01*
X86221Y423074D01*
X81890D01*
X81045Y422906D01*
X80329Y422427D01*
X75210Y417309D01*
X74732Y416593D01*
X74564Y415748D01*
Y415185D01*
X73917Y413484D01*
X64468D01*
Y404823D01*
X73204D01*
X73204Y404823D01*
Y404823D01*
X73819Y403109D01*
Y400984D01*
X75567D01*
Y395276D01*
X75567Y395276D01*
X75659Y394815D01*
X75859Y394515D01*
X75782Y394138D01*
X75014Y392547D01*
X55798D01*
X47038Y401307D01*
X47791Y403126D01*
X48228D01*
X48948Y403221D01*
X49618Y403498D01*
X50194Y403940D01*
X51077Y404823D01*
X56201D01*
Y413484D01*
X46752D01*
Y408685D01*
X44783D01*
Y408858D01*
X28248D01*
Y405506D01*
X16751Y394009D01*
X16384Y393960D01*
X15341Y393528D01*
X14445Y392841D01*
X13758Y391946D01*
X13326Y390903D01*
X13179Y389783D01*
X13326Y388664D01*
X13758Y387621D01*
X14445Y386725D01*
X15341Y386038D01*
X15926Y385796D01*
X15967Y385632D01*
Y383935D01*
X15926Y383771D01*
X15341Y383528D01*
X14445Y382841D01*
X13758Y381946D01*
X13326Y380903D01*
X13179Y379783D01*
X13326Y378664D01*
X13758Y377621D01*
X14445Y376726D01*
X15341Y376038D01*
X16384Y375606D01*
X17503Y375459D01*
X18622Y375606D01*
X19665Y376038D01*
X20561Y376726D01*
X21248Y377621D01*
X21680Y378664D01*
X21828Y379783D01*
X21680Y380903D01*
X21248Y381946D01*
X20561Y382841D01*
X19665Y383528D01*
X19080Y383771D01*
X19039Y383935D01*
Y385632D01*
X19080Y385796D01*
X19665Y386038D01*
X20561Y386725D01*
X21248Y387621D01*
X21680Y388664D01*
X21828Y389783D01*
X21680Y390903D01*
X21630Y391025D01*
X33557Y402953D01*
X41419D01*
X54223Y390148D01*
X54679Y389844D01*
X55216Y389737D01*
X78051D01*
Y388386D01*
X83957D01*
Y393284D01*
X90151D01*
X91043Y392391D01*
Y388386D01*
X95513D01*
X96329Y386417D01*
X84442Y374531D01*
X69980D01*
X69980Y374531D01*
X69520Y374439D01*
X69129Y374178D01*
X63379Y368429D01*
X17034D01*
X3173Y382290D01*
Y388750D01*
X5426Y391003D01*
X6384Y390606D01*
X7503Y390459D01*
X8623Y390606D01*
X9665Y391038D01*
X10561Y391725D01*
X11248Y392621D01*
X11680Y393664D01*
X11828Y394783D01*
X11746Y395402D01*
X11765Y395434D01*
X12866Y396433D01*
X13477Y396708D01*
X13613Y396651D01*
X14590Y396523D01*
X15566Y396651D01*
X16476Y397028D01*
X17257Y397628D01*
X17857Y398409D01*
X18234Y399319D01*
X18362Y400295D01*
X18234Y401271D01*
X17857Y402181D01*
X17257Y402963D01*
X16476Y403562D01*
X15566Y403939D01*
X14590Y404068D01*
X13613Y403939D01*
X12704Y403562D01*
X11922Y402963D01*
X11323Y402181D01*
X10946Y401271D01*
X10817Y400295D01*
X10844Y400096D01*
X10500Y399639D01*
X9303Y398806D01*
X9127Y398751D01*
X8623Y398960D01*
X7503Y399108D01*
X6384Y398960D01*
X5341Y398528D01*
X4445Y397841D01*
X3758Y396946D01*
X3326Y395903D01*
X3179Y394783D01*
X3326Y393664D01*
X3467Y393324D01*
X2619Y392476D01*
X653Y393294D01*
X734Y429134D01*
X21116D01*
X25219Y425031D01*
Y423644D01*
X53959D01*
Y424215D01*
X54231Y424556D01*
X54283Y424656D01*
X54346Y424750D01*
X54355Y424794D01*
X54375Y424834D01*
X54385Y424946D01*
X54407Y425057D01*
Y447081D01*
X54346Y447388D01*
X54172Y447649D01*
X53911Y447823D01*
X53604Y447884D01*
X21555D01*
Y450394D01*
X4029D01*
X2715Y452362D01*
X2796Y452559D01*
X134153D01*
Y365945D01*
D02*
G37*
G36*
X158706Y263123D02*
X158994Y262931D01*
X159186Y262643D01*
X159254Y262303D01*
X159181Y261940D01*
X159155Y261875D01*
X159099Y261771D01*
X159095Y261731D01*
X159080Y261694D01*
Y261577D01*
X159068Y261459D01*
X159080Y261421D01*
Y261381D01*
X159125Y261272D01*
X159159Y261159D01*
X159395Y260718D01*
X159470Y260627D01*
X159535Y260529D01*
X159568Y260507D01*
X159594Y260476D01*
X159698Y260421D01*
X159796Y260355D01*
X159835Y260347D01*
X159870Y260329D01*
X159987Y260317D01*
X160103Y260294D01*
X161268D01*
Y248825D01*
X161154Y248372D01*
X141568D01*
Y257525D01*
X146838Y262795D01*
X148228D01*
Y263037D01*
X153969D01*
X156929Y263156D01*
X158366D01*
X158452Y263173D01*
X158706Y263123D01*
D02*
G37*
G36*
X18146Y264861D02*
X18799Y264731D01*
X22539D01*
X22626Y264748D01*
X22879Y264698D01*
X23167Y264506D01*
X23359Y264218D01*
X23383Y264099D01*
X23398Y264063D01*
X23401Y264024D01*
X23457Y263920D01*
X23463Y263904D01*
Y261925D01*
X27178Y257395D01*
X26998Y256928D01*
X17656Y255527D01*
X8151Y256552D01*
X7967Y257017D01*
X14802Y264976D01*
X17974D01*
X18146Y264861D01*
D02*
G37*
%LPC*%
G36*
X275590Y309875D02*
X274278Y309746D01*
X273017Y309363D01*
X271854Y308741D01*
X270835Y307905D01*
X269999Y306886D01*
X269377Y305723D01*
X268994Y304462D01*
X268865Y303150D01*
X268994Y301838D01*
X269377Y300576D01*
X269999Y299413D01*
X270835Y298394D01*
X271854Y297558D01*
X273017Y296936D01*
X274278Y296553D01*
X275590Y296424D01*
X276903Y296553D01*
X278164Y296936D01*
X279327Y297558D01*
X280346Y298394D01*
X281182Y299413D01*
X281804Y300576D01*
X282187Y301838D01*
X282316Y303150D01*
X282187Y304462D01*
X281804Y305723D01*
X281182Y306886D01*
X280346Y307905D01*
X279327Y308741D01*
X278164Y309363D01*
X276903Y309746D01*
X275590Y309875D01*
D02*
G37*
G36*
X39589Y438333D02*
X38408D01*
X37689Y438238D01*
X37018Y437961D01*
X36443Y437519D01*
X36001Y436943D01*
X35723Y436273D01*
X35628Y435553D01*
X35723Y434834D01*
X36001Y434164D01*
X36443Y433588D01*
X37018Y433146D01*
X37689Y432868D01*
X38408Y432774D01*
X39589D01*
X40308Y432868D01*
X40979Y433146D01*
X41554Y433588D01*
X41996Y434164D01*
X42274Y434834D01*
X42369Y435553D01*
X42274Y436273D01*
X41996Y436943D01*
X41554Y437519D01*
X40979Y437961D01*
X40308Y438238D01*
X39589Y438333D01*
D02*
G37*
G36*
X273819Y429331D02*
X267520D01*
Y425394D01*
X273212D01*
X274624Y423931D01*
X274600Y423490D01*
X274025Y422100D01*
X273962Y422050D01*
X273662Y421850D01*
X267520D01*
Y417913D01*
X273819D01*
Y418015D01*
X275000Y419051D01*
X276969Y418420D01*
Y416732D01*
X279627D01*
X279740Y416161D01*
X280175Y415510D01*
X280826Y415075D01*
X281594Y414922D01*
X282363Y415075D01*
X283014Y415510D01*
X283449Y416161D01*
X283562Y416732D01*
X283858D01*
Y419291D01*
Y421850D01*
Y424409D01*
Y427559D01*
X276969D01*
X276969Y427559D01*
Y427559D01*
X275093Y427784D01*
X274767Y427869D01*
X274480Y428299D01*
X274050Y428586D01*
X273819Y428632D01*
Y429331D01*
D02*
G37*
G36*
X249158Y443476D02*
X243083D01*
Y442448D01*
X242741Y442101D01*
X241114Y441310D01*
X240917Y441392D01*
X240059Y441505D01*
X239201Y441392D01*
X238401Y441060D01*
X237715Y440534D01*
X237426Y440157D01*
X233366D01*
Y436220D01*
X237426D01*
X237715Y435844D01*
X238401Y435318D01*
X239201Y434986D01*
X240059Y434873D01*
X240917Y434986D01*
X241114Y435068D01*
X242741Y434277D01*
X243083Y433930D01*
Y432902D01*
X249158D01*
Y443476D01*
D02*
G37*
G36*
X73228Y450166D02*
X72370Y450053D01*
X71570Y449722D01*
X71440Y449622D01*
X64387D01*
X64256Y449722D01*
X63457Y450053D01*
X62598Y450166D01*
X61740Y450053D01*
X60940Y449722D01*
X60735Y449564D01*
X60716Y449561D01*
X60456Y449387D01*
X60406Y449312D01*
X60254Y449195D01*
X59727Y448508D01*
X59396Y447709D01*
X59283Y446850D01*
X59396Y445992D01*
X59727Y445192D01*
X60221Y444549D01*
Y442853D01*
X59727Y442209D01*
X59396Y441409D01*
X59283Y440551D01*
X59396Y439693D01*
X59727Y438893D01*
X60254Y438207D01*
X60940Y437680D01*
X61740Y437348D01*
X62598Y437235D01*
X63457Y437348D01*
X64256Y437680D01*
X64900Y438173D01*
X71116D01*
X71144Y438106D01*
X71671Y437419D01*
X72358Y436892D01*
X73158Y436561D01*
X74016Y436448D01*
X74874Y436561D01*
X75674Y436892D01*
X76360Y437419D01*
X76887Y438106D01*
X77030Y438451D01*
X77033Y438453D01*
X78709Y439132D01*
X79240Y439176D01*
X79851Y438923D01*
X80709Y438810D01*
X81567Y438923D01*
X82367Y439254D01*
X83053Y439781D01*
X83580Y440468D01*
X83912Y441268D01*
X84024Y442126D01*
X83912Y442984D01*
X83580Y443784D01*
X83053Y444471D01*
X82367Y444998D01*
X81567Y445329D01*
X80709Y445442D01*
X79851Y445329D01*
X79051Y444998D01*
X79031Y444982D01*
X77030Y445274D01*
X76667Y445493D01*
X76431Y445992D01*
X76544Y446850D01*
X76431Y447709D01*
X76100Y448508D01*
X76000Y448639D01*
Y448819D01*
X75939Y449126D01*
X75765Y449387D01*
X75504Y449561D01*
X75197Y449622D01*
X75017D01*
X74886Y449722D01*
X74086Y450053D01*
X73228Y450166D01*
D02*
G37*
G36*
X175610Y447437D02*
X174883Y447342D01*
X174205Y447061D01*
X173622Y446614D01*
X173176Y446032D01*
X172895Y445354D01*
X172799Y444626D01*
X172895Y443898D01*
X172983Y443684D01*
X172916Y443572D01*
X171665Y442320D01*
X171552Y442253D01*
X171338Y442342D01*
X170610Y442437D01*
X169883Y442342D01*
X169205Y442061D01*
X168622Y441614D01*
X168176Y441032D01*
X167895Y440354D01*
X167799Y439626D01*
X167895Y438898D01*
X168176Y438220D01*
X168622Y437638D01*
X169205Y437191D01*
X169883Y436910D01*
X170610Y436814D01*
X171338Y436910D01*
X172016Y437191D01*
X172598Y437638D01*
X173622D01*
X174205Y437191D01*
X174883Y436910D01*
X175610Y436814D01*
X176338Y436910D01*
X177016Y437191D01*
X177598Y437638D01*
X178622D01*
X179205Y437191D01*
X179883Y436910D01*
X180610Y436814D01*
X181338Y436910D01*
X182016Y437191D01*
X182598Y437638D01*
X183622D01*
X184205Y437191D01*
X184711Y436981D01*
X184759Y436910D01*
X208146Y413522D01*
Y411012D01*
X207931Y410868D01*
X207496Y410217D01*
X207343Y409449D01*
Y405007D01*
X206721Y403810D01*
X205524Y403188D01*
X203436D01*
X203173Y403451D01*
X202782Y403713D01*
X202321Y403804D01*
X202321Y403804D01*
X201835D01*
X201691Y404019D01*
X201040Y404454D01*
X200272Y404607D01*
X199504Y404454D01*
X198852Y404019D01*
X198417Y403368D01*
X198265Y402600D01*
X198417Y401832D01*
X198810Y401244D01*
X198911Y401055D01*
X198965Y400941D01*
X199028Y400685D01*
X199229Y398800D01*
Y398800D01*
Y398799D01*
X199076Y398031D01*
X199163Y397591D01*
X199201Y396457D01*
X199163Y395322D01*
X199076Y394882D01*
X199163Y394442D01*
X199201Y393307D01*
X199170Y392366D01*
X198499Y390834D01*
X197993Y390044D01*
X197648Y389787D01*
X189200D01*
X187303Y389961D01*
Y389973D01*
Y390641D01*
X187303Y391756D01*
Y395866D01*
X183760D01*
X181791Y395866D01*
X181791Y395866D01*
X180098Y396358D01*
X180098D01*
X180098Y396358D01*
Y396358D01*
X180027Y396358D01*
X177067D01*
X176161Y396358D01*
X175630D01*
X175098D01*
X174193Y396358D01*
X172067D01*
X171161Y396358D01*
X170630D01*
X170098D01*
X169193Y396358D01*
X167067D01*
X166161Y396358D01*
X165630D01*
X165098D01*
X164193Y396358D01*
X163189D01*
X163125Y396371D01*
X162500Y396495D01*
X161489Y396392D01*
X160098Y396358D01*
X160035D01*
X159438D01*
X159195Y396358D01*
X159015D01*
X158858D01*
X158169Y396495D01*
X157481Y396358D01*
X157067D01*
X156161Y396358D01*
X155630D01*
X155098D01*
X154193Y396358D01*
X151161D01*
X151161Y396358D01*
X151161D01*
X150098D01*
Y396358D01*
X149193Y396358D01*
X146161D01*
Y388287D01*
X147706D01*
X154145Y381849D01*
X154536Y381587D01*
X154997Y381496D01*
X154997Y381496D01*
X184472D01*
X184472Y381496D01*
X184932Y381587D01*
X185323Y381849D01*
X187871Y384396D01*
X191519D01*
Y378991D01*
X197424D01*
Y381079D01*
X199520D01*
X199664Y380864D01*
X200315Y380429D01*
X201083Y380276D01*
X206398D01*
X206428Y380282D01*
X207166Y380429D01*
X207166Y380429D01*
X207817Y380864D01*
X208026Y381177D01*
Y381177D01*
X208029Y381182D01*
X208252Y381515D01*
X208252Y381515D01*
X208252Y381515D01*
X208405Y382283D01*
X208405Y382283D01*
X208317Y382724D01*
X208317Y382724D01*
X208307Y383029D01*
X208279Y383858D01*
X208317Y384993D01*
X208405Y385433D01*
X208317Y385873D01*
X208279Y387008D01*
X208317Y388143D01*
X208405Y388583D01*
X208317Y389023D01*
X208279Y390158D01*
X208317Y391292D01*
X208405Y391732D01*
X208317Y392172D01*
X208279Y393307D01*
X208317Y394442D01*
X208405Y394882D01*
X208317Y395322D01*
X208279Y396457D01*
X208317Y397591D01*
X208405Y398031D01*
X208317Y398472D01*
X208291Y399254D01*
X208279Y399606D01*
X208310Y400507D01*
X208550Y400902D01*
X208958Y401573D01*
X209629Y401982D01*
X210024Y402222D01*
X210925Y402252D01*
X211277Y402241D01*
X211755Y402225D01*
X212060Y402214D01*
X212060Y402214D01*
X212500Y402127D01*
X212500Y402127D01*
X212714Y402169D01*
X214075Y402420D01*
X215436Y402169D01*
X215650Y402127D01*
X215650Y402127D01*
X216090Y402214D01*
X216090Y402214D01*
X216395Y402225D01*
X217225Y402252D01*
X218359Y402214D01*
X218799Y402127D01*
X219239Y402214D01*
X220374Y402252D01*
X221204Y402225D01*
X221509Y402214D01*
X221509Y402214D01*
X221949Y402127D01*
X221949Y402127D01*
X222717Y402280D01*
X222717Y402280D01*
X222717Y402280D01*
X223051Y402503D01*
X223056Y402506D01*
X224877Y402150D01*
X225144Y402079D01*
X226149Y401017D01*
X226263Y400504D01*
X226317Y400232D01*
X226752Y399581D01*
X227404Y399146D01*
X228172Y398993D01*
X228940Y399146D01*
X229591Y399581D01*
X230026Y400232D01*
X230086Y400533D01*
X230252Y401068D01*
X231369Y402101D01*
X231793Y402206D01*
X232166Y402280D01*
X232817Y402715D01*
X233252Y403366D01*
X233405Y404134D01*
X235373Y405186D01*
X236417Y405186D01*
X236417D01*
X238335Y405064D01*
X239138Y404457D01*
X240695Y402900D01*
X241216Y402552D01*
X241434Y401116D01*
X240433Y399886D01*
X239665Y400039D01*
X234350D01*
X233582Y399886D01*
X232931Y399451D01*
X232496Y398800D01*
X232343Y398031D01*
X232496Y397264D01*
X232931Y396612D01*
X233582Y396177D01*
X234350Y396024D01*
X239665D01*
X240433Y396177D01*
X240650Y396322D01*
X242618Y395865D01*
Y395078D01*
X248130D01*
Y400984D01*
X248130D01*
X248738Y402378D01*
X249069Y403177D01*
X249182Y404035D01*
X249069Y404894D01*
X248738Y405693D01*
X248211Y406380D01*
X247524Y406907D01*
X246724Y407238D01*
X245866Y407351D01*
X245008Y407238D01*
X244208Y406907D01*
X244193Y406895D01*
X242224Y407771D01*
Y412795D01*
X236713D01*
Y409357D01*
X235752Y408397D01*
X233405D01*
Y409449D01*
X233252Y410217D01*
X232817Y410868D01*
X232166Y411303D01*
X231398Y411456D01*
X230630Y411303D01*
X229978Y410868D01*
X229973D01*
X229349Y411081D01*
X229016Y411303D01*
X228248Y411456D01*
X228248Y411456D01*
X228248D01*
X226522Y412042D01*
X226518Y412049D01*
X225867Y412484D01*
X225098Y412637D01*
X224330Y412484D01*
X223679Y412049D01*
X223674Y412045D01*
X221949Y411456D01*
X221949D01*
X220175Y411925D01*
X219769Y412296D01*
X219737Y414392D01*
X225820Y420475D01*
X247455D01*
X247455Y420475D01*
X247878Y420560D01*
X247962Y420576D01*
X248392Y420863D01*
X248920Y421392D01*
X255357D01*
X257804Y418945D01*
X257804Y418945D01*
X258233Y418658D01*
X258317Y418641D01*
X258465Y418612D01*
Y417913D01*
X264764D01*
Y421653D01*
Y425394D01*
Y429331D01*
X258465D01*
Y428632D01*
X258317Y428603D01*
X258233Y428586D01*
X257804Y428299D01*
X257804Y428299D01*
X255357Y425852D01*
X247621D01*
X247115Y425751D01*
X246685Y425464D01*
X246156Y424936D01*
X238736D01*
X236980Y425449D01*
X236980Y426904D01*
Y431524D01*
X232576D01*
X231004Y432480D01*
Y436417D01*
X224705D01*
X223433Y437249D01*
X223327Y439173D01*
X223327Y439173D01*
X223327Y439173D01*
Y445079D01*
X218602D01*
X217815Y445079D01*
X217224D01*
X216634D01*
X215846Y445079D01*
X211122D01*
Y444378D01*
X211004Y444354D01*
X210352Y443919D01*
X209917Y443268D01*
X209765Y442500D01*
X209917Y441732D01*
X210352Y441081D01*
X211004Y440646D01*
X211122Y440622D01*
Y439173D01*
X215846D01*
X216634Y439173D01*
X218081Y437914D01*
Y434914D01*
X216259Y434559D01*
X215668D01*
X215078D01*
X214290Y434559D01*
X209566D01*
Y428654D01*
X209566D01*
X210407Y428470D01*
Y425549D01*
Y425549D01*
X210407Y425407D01*
X210407Y424607D01*
Y424433D01*
Y424316D01*
X210304Y424262D01*
X210127Y424170D01*
X209890Y424047D01*
X208657Y423405D01*
X208657D01*
X208577Y423363D01*
X193243Y438697D01*
X193326Y438898D01*
X193422Y439626D01*
X193390Y439870D01*
X193398Y441839D01*
X193398Y441839D01*
X193398Y441839D01*
Y447413D01*
X187823D01*
Y443826D01*
X187220Y443223D01*
X185854Y442405D01*
X185610Y442437D01*
X184883Y442342D01*
X184205Y442061D01*
X183622Y441614D01*
X182598D01*
X182016Y442061D01*
X181338Y442342D01*
X180610Y442437D01*
X179883Y442342D01*
X179669Y442253D01*
X179556Y442320D01*
X178305Y443572D01*
X178237Y443684D01*
X178326Y443898D01*
X178422Y444626D01*
X178326Y445354D01*
X178045Y446032D01*
X177598Y446614D01*
X177016Y447061D01*
X176338Y447342D01*
X175610Y447437D01*
D02*
G37*
G36*
X149385Y428361D02*
X149088Y428301D01*
X145743D01*
X144975Y428149D01*
X144324Y427714D01*
X143889Y427063D01*
X143736Y426294D01*
X143889Y425526D01*
X144324Y424875D01*
X144326Y424870D01*
Y422719D01*
X144324Y422714D01*
X143889Y422062D01*
X143736Y421294D01*
X143889Y420526D01*
X144324Y419875D01*
X144326Y419870D01*
Y417719D01*
X144324Y417714D01*
X143889Y417063D01*
X143736Y416294D01*
X143889Y415526D01*
X144324Y414875D01*
X144975Y414440D01*
X145743Y414287D01*
X146008D01*
Y411787D01*
X145054D01*
Y405881D01*
X150566D01*
Y411787D01*
X149219D01*
Y414287D01*
X149484D01*
X150252Y414440D01*
X150903Y414875D01*
X151338Y415526D01*
X151491Y416294D01*
X151338Y417063D01*
X151247Y417199D01*
X151182Y418366D01*
X151691Y419554D01*
X151788Y419619D01*
X152224Y420270D01*
X152376Y421038D01*
X152224Y421807D01*
X151788Y422458D01*
X151288Y422792D01*
X151011Y423960D01*
X150903Y424875D01*
X151338Y425526D01*
X151491Y426294D01*
X151338Y427063D01*
X150903Y427714D01*
X150252Y428149D01*
X150237Y428152D01*
X150153Y428208D01*
X149385Y428361D01*
D02*
G37*
G36*
X17995Y352179D02*
X16876Y352031D01*
X15833Y351599D01*
X14938Y350912D01*
X14250Y350016D01*
X13818Y348973D01*
X13671Y347854D01*
X13818Y346735D01*
X14250Y345692D01*
X14938Y344796D01*
X15833Y344109D01*
X16418Y343867D01*
X16459Y343703D01*
Y342005D01*
X16418Y341842D01*
X15833Y341599D01*
X14938Y340912D01*
X14250Y340016D01*
X13818Y338973D01*
X13671Y337854D01*
X13818Y336735D01*
X14250Y335692D01*
X14938Y334796D01*
X15833Y334109D01*
X16876Y333677D01*
X17995Y333530D01*
X19115Y333677D01*
X20157Y334109D01*
X21053Y334796D01*
X21740Y335692D01*
X22172Y336735D01*
X22320Y337854D01*
X22172Y338973D01*
X21740Y340016D01*
X21053Y340912D01*
X20157Y341599D01*
X19573Y341842D01*
X19532Y342005D01*
Y343703D01*
X19573Y343867D01*
X20157Y344109D01*
X21053Y344796D01*
X21740Y345692D01*
X22172Y346735D01*
X22320Y347854D01*
X22172Y348973D01*
X21740Y350016D01*
X21053Y350912D01*
X20157Y351599D01*
X19115Y352031D01*
X17995Y352179D01*
D02*
G37*
G36*
X43898Y349245D02*
X42586Y349116D01*
X41324Y348733D01*
X40161Y348112D01*
X39142Y347275D01*
X38306Y346256D01*
X37684Y345093D01*
X37302Y343832D01*
X37172Y342520D01*
X37302Y341208D01*
X37684Y339946D01*
X38306Y338783D01*
X39142Y337764D01*
X40161Y336928D01*
X41324Y336306D01*
X42586Y335924D01*
X43898Y335794D01*
X45210Y335924D01*
X46471Y336306D01*
X47634Y336928D01*
X48653Y337764D01*
X49490Y338783D01*
X50111Y339946D01*
X50494Y341208D01*
X50623Y342520D01*
X50494Y343832D01*
X50111Y345093D01*
X49490Y346256D01*
X48653Y347275D01*
X47634Y348112D01*
X46471Y348733D01*
X45210Y349116D01*
X43898Y349245D01*
D02*
G37*
G36*
X275590Y388615D02*
X274278Y388486D01*
X273017Y388103D01*
X271854Y387482D01*
X270835Y386645D01*
X269999Y385626D01*
X269377Y384463D01*
X268994Y383202D01*
X268865Y381890D01*
X268994Y380578D01*
X269377Y379316D01*
X269999Y378153D01*
X270835Y377134D01*
X271854Y376298D01*
X273017Y375676D01*
X274278Y375294D01*
X275590Y375165D01*
X276903Y375294D01*
X278164Y375676D01*
X279327Y376298D01*
X280346Y377134D01*
X281182Y378153D01*
X281804Y379316D01*
X282187Y380578D01*
X282316Y381890D01*
X282187Y383202D01*
X281804Y384463D01*
X281182Y385626D01*
X280346Y386645D01*
X279327Y387482D01*
X278164Y388103D01*
X276903Y388486D01*
X275590Y388615D01*
D02*
G37*
G36*
X229035Y394133D02*
X228267Y393980D01*
X227616Y393545D01*
X227181Y392894D01*
X227028Y392126D01*
X227079Y391872D01*
X217948Y382741D01*
X217687Y382351D01*
X217595Y381890D01*
X217595Y381890D01*
Y379616D01*
X217338Y379271D01*
X216548Y378764D01*
X215016Y378094D01*
X214075Y378062D01*
X212940Y378101D01*
X212500Y378188D01*
X212060Y378101D01*
X210925Y378062D01*
X210096Y378090D01*
X209791Y378101D01*
X209791Y378101D01*
X209350Y378188D01*
X209350Y378188D01*
X208582Y378035D01*
X208582Y378035D01*
X208582Y378035D01*
X208249Y377812D01*
X208244Y377809D01*
X208244Y377809D01*
X207931Y377600D01*
X207496Y376949D01*
X207496Y376949D01*
X207349Y376211D01*
X207343Y376181D01*
Y372342D01*
X206972Y372016D01*
X206114Y371903D01*
X205314Y371571D01*
X204627Y371045D01*
X204339Y370669D01*
X202461D01*
Y364764D01*
X207972D01*
Y365556D01*
X208629Y365828D01*
X209316Y366355D01*
X209843Y367042D01*
X209925Y367240D01*
X211228Y367488D01*
X211743Y366104D01*
X211747Y366009D01*
X211486Y365618D01*
X211394Y365158D01*
X211394Y365157D01*
Y260138D01*
X211394Y260138D01*
X211486Y259677D01*
X211747Y259286D01*
X221747Y249286D01*
X221747Y249286D01*
X221981Y249130D01*
X222138Y249025D01*
X222599Y248934D01*
X234464D01*
X234860Y247975D01*
X235548Y247080D01*
X236443Y246393D01*
X237486Y245961D01*
X238605Y245813D01*
X239725Y245961D01*
X240768Y246393D01*
X241663Y247080D01*
X242351Y247975D01*
X242782Y249019D01*
X242930Y250138D01*
X242782Y251257D01*
X242351Y252300D01*
X241663Y253196D01*
X240768Y253883D01*
X239725Y254315D01*
X238605Y254462D01*
X237486Y254315D01*
X236443Y253883D01*
X235548Y253196D01*
X234860Y252300D01*
X234464Y251342D01*
X223097D01*
X213803Y260637D01*
Y358377D01*
X214419Y360090D01*
X220325D01*
X220745Y358296D01*
Y314235D01*
X220745Y314235D01*
X220836Y313774D01*
X221097Y313384D01*
X235514Y298967D01*
X235118Y298009D01*
X234970Y296890D01*
X235118Y295770D01*
X235549Y294727D01*
X236237Y293832D01*
X237132Y293145D01*
X238175Y292713D01*
X239295Y292565D01*
X240414Y292713D01*
X241457Y293145D01*
X242352Y293832D01*
X243039Y294727D01*
X243092Y294853D01*
X244366Y295375D01*
X244957Y295381D01*
X245550Y294052D01*
X245117Y293009D01*
X244970Y291890D01*
X245117Y290770D01*
X245550Y289727D01*
X246237Y288832D01*
X247132Y288145D01*
X248175Y287713D01*
X249294Y287565D01*
X250414Y287713D01*
X251457Y288145D01*
X252352Y288832D01*
X253040Y289727D01*
X253471Y290770D01*
X253619Y291890D01*
X253471Y293009D01*
X253040Y294052D01*
X252352Y294948D01*
X251457Y295635D01*
X250872Y295877D01*
X250831Y296041D01*
Y297738D01*
X250872Y297902D01*
X251457Y298145D01*
X252352Y298832D01*
X253040Y299728D01*
X253471Y300770D01*
X253619Y301890D01*
X253471Y303009D01*
X253207Y303647D01*
X253324Y303822D01*
X253447Y304436D01*
Y314793D01*
X253324Y315407D01*
X252976Y315928D01*
X252976Y315928D01*
X250591Y318314D01*
Y321752D01*
X245079D01*
Y315911D01*
X244495Y315669D01*
X243714Y315069D01*
X243114Y314288D01*
X242737Y313378D01*
X242609Y312402D01*
X242737Y311425D01*
X243114Y310515D01*
X243714Y309734D01*
X244495Y309135D01*
X245405Y308758D01*
X246381Y308629D01*
X247358Y308758D01*
X247423Y308785D01*
X249372Y307668D01*
X249495Y306390D01*
X249294Y306214D01*
X248175Y306067D01*
X247132Y305635D01*
X246237Y304947D01*
X245550Y304052D01*
X245117Y303009D01*
X243046Y302358D01*
X242584Y302820D01*
X242193Y303081D01*
X241732Y303173D01*
X241732Y303173D01*
X237703D01*
X226500Y314377D01*
Y346635D01*
X228468Y347450D01*
X235219Y340699D01*
X234822Y339741D01*
X234675Y338622D01*
X234822Y337503D01*
X235254Y336460D01*
X235941Y335564D01*
X236837Y334877D01*
X237880Y334445D01*
X238999Y334298D01*
X240118Y334445D01*
X241161Y334877D01*
X242057Y335564D01*
X242744Y336460D01*
X243176Y337503D01*
X243323Y338622D01*
X243176Y339741D01*
X242744Y340784D01*
X242057Y341680D01*
X241161Y342367D01*
X240118Y342799D01*
X238999Y342947D01*
X237880Y342799D01*
X236922Y342402D01*
X229452Y349872D01*
Y367431D01*
X229709Y367776D01*
X231398Y368859D01*
X232166Y369012D01*
X232817Y369447D01*
X233252Y370098D01*
X233405Y370866D01*
Y372319D01*
X243104D01*
X249970Y365453D01*
X249155Y363484D01*
X245571D01*
Y357839D01*
X245109Y357778D01*
X244199Y357401D01*
X243418Y356801D01*
X242819Y356020D01*
X242442Y355110D01*
X242313Y354134D01*
X242442Y353157D01*
X242819Y352248D01*
X243418Y351466D01*
X244199Y350867D01*
X245109Y350490D01*
X246086Y350361D01*
X246459Y350033D01*
X246868Y349416D01*
X246837Y347367D01*
X245941Y346680D01*
X245254Y345784D01*
X244822Y344741D01*
X244675Y343622D01*
X244822Y342503D01*
X245254Y341460D01*
X245941Y340564D01*
X246837Y339877D01*
X247422Y339635D01*
X247463Y339471D01*
Y337773D01*
X247422Y337609D01*
X246837Y337367D01*
X245941Y336680D01*
X245254Y335784D01*
X244822Y334741D01*
X244675Y333622D01*
X244822Y332503D01*
X245254Y331460D01*
X245941Y330564D01*
X246837Y329877D01*
X247880Y329445D01*
X248999Y329298D01*
X250118Y329445D01*
X251161Y329877D01*
X252057Y330564D01*
X252744Y331460D01*
X253176Y332503D01*
X253324Y333622D01*
X253176Y334741D01*
X252779Y335699D01*
X256571Y339491D01*
X258469Y338835D01*
X258540Y338779D01*
Y256775D01*
X254298Y252533D01*
X252629Y253648D01*
X252783Y254018D01*
X252930Y255138D01*
X252783Y256257D01*
X252552Y256814D01*
X252676Y256938D01*
X252676Y256938D01*
X253024Y257459D01*
X253045Y257561D01*
X253147Y258073D01*
X253147Y258073D01*
Y268538D01*
X253147Y268538D01*
X253024Y269152D01*
X252909Y269325D01*
X252676Y269673D01*
X252676Y269673D01*
X250295Y272054D01*
Y274606D01*
X244783D01*
Y269303D01*
X244716Y269294D01*
X243806Y268917D01*
X243025Y268317D01*
X242425Y267536D01*
X242048Y266626D01*
X241920Y265650D01*
X242048Y264673D01*
X242425Y263763D01*
X243025Y262982D01*
X243806Y262383D01*
X244716Y262006D01*
X245692Y261877D01*
X246669Y262006D01*
X248791Y261304D01*
X248952Y261161D01*
X247832Y259360D01*
X247486Y259315D01*
X246443Y258883D01*
X245548Y258195D01*
X244860Y257300D01*
X244428Y256257D01*
X244281Y255138D01*
X244428Y254018D01*
X244860Y252976D01*
X245548Y252080D01*
X246443Y251393D01*
X247028Y251150D01*
X247069Y250987D01*
Y249289D01*
X247028Y249125D01*
X246443Y248883D01*
X245548Y248196D01*
X244860Y247300D01*
X244428Y246257D01*
X244281Y245138D01*
X244428Y244019D01*
X244860Y242975D01*
X245548Y242080D01*
X246443Y241393D01*
X247486Y240961D01*
X248605Y240813D01*
X249725Y240961D01*
X250768Y241393D01*
X251663Y242080D01*
X252350Y242975D01*
X252783Y244019D01*
X252930Y245138D01*
X252783Y246257D01*
X252386Y247215D01*
X260596Y255425D01*
X260596Y255425D01*
X260857Y255816D01*
X260948Y256276D01*
X260948Y256276D01*
Y370177D01*
X260948Y370177D01*
X260857Y370638D01*
X260596Y371029D01*
X251639Y379985D01*
X251248Y380246D01*
X250787Y380338D01*
X250787Y380338D01*
X244657D01*
X243230Y382049D01*
X243468Y383346D01*
Y383346D01*
X244119Y383781D01*
X244554Y384432D01*
X244554Y384432D01*
X244634Y384831D01*
X244707Y385200D01*
X244554Y385968D01*
X244119Y386619D01*
X243468Y387054D01*
X243232Y387101D01*
X242574Y387375D01*
X242321Y387714D01*
X241578Y389232D01*
X241547Y390158D01*
X241575Y390987D01*
X241585Y391292D01*
X241585Y391292D01*
X241672Y391732D01*
X241672Y391732D01*
X241520Y392500D01*
X241520Y392500D01*
X241520Y392500D01*
X241297Y392834D01*
X241293Y392839D01*
X241293Y392839D01*
X241085Y393151D01*
X240434Y393587D01*
X240433Y393587D01*
X239695Y393733D01*
X239665Y393739D01*
X234350D01*
X233582Y393587D01*
X232931Y393151D01*
X232865Y393053D01*
X231858Y392972D01*
X230887Y393076D01*
X230731Y393132D01*
X230455Y393545D01*
X229803Y393980D01*
X229035Y394133D01*
D02*
G37*
G36*
X71752Y348622D02*
X66634D01*
Y344953D01*
X66589Y344894D01*
X66311Y344223D01*
X66216Y343504D01*
Y332480D01*
X66240Y332300D01*
Y329527D01*
X71752D01*
Y332300D01*
X71776Y332480D01*
Y343504D01*
X71752Y343683D01*
Y348622D01*
D02*
G37*
%LPD*%
G36*
X224043Y428687D02*
X224728Y428597D01*
X226025Y426992D01*
X225901Y426201D01*
X224521Y424936D01*
X224099Y424852D01*
X224015Y424835D01*
X223585Y424548D01*
X223585Y424548D01*
X215673Y416636D01*
X214662Y416816D01*
X213704Y417356D01*
Y417736D01*
X213613Y418197D01*
X213352Y418588D01*
X213352Y418588D01*
X210075Y421865D01*
X210117Y421945D01*
X210117D01*
X210759Y423178D01*
X210882Y423415D01*
X210974Y423592D01*
X211028Y423695D01*
X211145D01*
X211319D01*
X212119Y423695D01*
X212261D01*
X212261D01*
X215482D01*
Y427007D01*
X216205Y428540D01*
X217375Y428654D01*
X219802D01*
X221771Y428654D01*
X221771Y428654D01*
X223675Y428808D01*
X223675D01*
X223739Y428813D01*
X224043Y428687D01*
D02*
G37*
G36*
X75197Y438976D02*
X61024D01*
Y448819D01*
X75197D01*
Y438976D01*
D02*
G37*
D10*
X51476Y409154D02*
D03*
X69193D02*
D03*
D11*
X219015Y431606D02*
D03*
X212322D02*
D03*
X245374Y398031D02*
D03*
X252067D02*
D03*
X213878Y442126D02*
D03*
X220571D02*
D03*
X205216Y367717D02*
D03*
X198524D02*
D03*
X113164Y415133D02*
D03*
X119858D02*
D03*
X147810Y408834D02*
D03*
X141117D02*
D03*
X247539Y271654D02*
D03*
X240846D02*
D03*
X145472Y265748D02*
D03*
X138780D02*
D03*
Y271260D02*
D03*
X145472D02*
D03*
X247835Y318799D02*
D03*
X241142D02*
D03*
X78149Y267717D02*
D03*
X71457D02*
D03*
X68701Y282677D02*
D03*
X75394D02*
D03*
X74409Y275984D02*
D03*
X67716D02*
D03*
X248327Y360531D02*
D03*
X241634D02*
D03*
X75394Y288189D02*
D03*
X68701D02*
D03*
X11347Y269600D02*
D03*
X4654D02*
D03*
X4654Y275600D02*
D03*
X11347D02*
D03*
X26754Y287500D02*
D03*
X33446D02*
D03*
X246162Y409842D02*
D03*
X239469D02*
D03*
X191240Y392913D02*
D03*
X184547D02*
D03*
X75689Y332480D02*
D03*
X68996D02*
D03*
X81595D02*
D03*
X88287D02*
D03*
D12*
X212945Y426083D02*
D03*
X218945D02*
D03*
X220618Y437008D02*
D03*
X214618D02*
D03*
D13*
X40453Y405905D02*
D03*
Y417717D02*
D03*
X32579Y405905D02*
D03*
Y417717D02*
D03*
D14*
X203740Y379134D02*
D03*
Y382283D02*
D03*
Y385433D02*
D03*
Y388583D02*
D03*
Y391732D02*
D03*
Y394882D02*
D03*
Y398031D02*
D03*
Y401181D02*
D03*
X237008D02*
D03*
Y398031D02*
D03*
Y394882D02*
D03*
Y391732D02*
D03*
Y388583D02*
D03*
Y385433D02*
D03*
Y382283D02*
D03*
Y379134D02*
D03*
D15*
X209350Y406791D02*
D03*
X212500D02*
D03*
X215650D02*
D03*
X218799D02*
D03*
X221949D02*
D03*
X225098D02*
D03*
X228248D02*
D03*
X231398D02*
D03*
Y373523D02*
D03*
X228248D02*
D03*
X225098D02*
D03*
X221949D02*
D03*
X218799D02*
D03*
X215650D02*
D03*
X209350D02*
D03*
X212500D02*
D03*
D16*
X246120Y438189D02*
D03*
X257670D02*
D03*
D17*
X217372Y362846D02*
D03*
Y356153D02*
D03*
X87697Y397835D02*
D03*
Y391142D02*
D03*
X81004D02*
D03*
Y397835D02*
D03*
X93996D02*
D03*
Y391142D02*
D03*
X76772Y403740D02*
D03*
Y410433D02*
D03*
X138189Y278937D02*
D03*
Y285630D02*
D03*
X145669Y278937D02*
D03*
Y285630D02*
D03*
X194472Y381746D02*
D03*
Y375054D02*
D03*
X44094Y294685D02*
D03*
Y287992D02*
D03*
X97933Y348425D02*
D03*
Y341732D02*
D03*
X178248Y342717D02*
D03*
Y349410D02*
D03*
X52953Y276280D02*
D03*
Y282972D02*
D03*
X116535Y275787D02*
D03*
Y282480D02*
D03*
X189469Y274311D02*
D03*
Y281004D02*
D03*
D18*
X280413Y418307D02*
D03*
Y420866D02*
D03*
Y423425D02*
D03*
Y425984D02*
D03*
Y428543D02*
D03*
D19*
X290945Y418701D02*
D03*
Y428150D02*
D03*
D20*
X281299Y410827D02*
D03*
Y436024D02*
D03*
D21*
X261614Y419882D02*
D03*
Y423622D02*
D03*
Y427362D02*
D03*
X270669D02*
D03*
Y423622D02*
D03*
Y419882D02*
D03*
X227854Y441929D02*
D03*
Y434449D02*
D03*
X236516Y438189D02*
D03*
D22*
X231693Y428486D02*
D03*
Y416936D02*
D03*
D23*
X147613Y416294D02*
D03*
Y421294D02*
D03*
Y426294D02*
D03*
Y431294D02*
D03*
X126353Y416294D02*
D03*
Y421294D02*
D03*
Y426294D02*
D03*
Y431294D02*
D03*
D24*
X67936Y426577D02*
D03*
Y444530D02*
D03*
D25*
X39589Y435553D02*
D03*
D26*
X10925Y439764D02*
D03*
X10236Y414567D02*
D03*
D27*
X177165Y248031D02*
D03*
X151575D02*
D03*
X105118Y247441D02*
D03*
X82677Y248031D02*
D03*
X39469Y247244D02*
D03*
X17717Y247638D02*
D03*
D28*
X156496Y280217D02*
D03*
Y277658D02*
D03*
Y275098D02*
D03*
Y272539D02*
D03*
Y269980D02*
D03*
Y267421D02*
D03*
Y264862D02*
D03*
Y262303D02*
D03*
X179724Y280217D02*
D03*
Y277658D02*
D03*
Y275098D02*
D03*
Y272539D02*
D03*
Y269980D02*
D03*
Y267421D02*
D03*
Y264862D02*
D03*
Y262303D02*
D03*
X85236Y282579D02*
D03*
Y280020D02*
D03*
Y277461D02*
D03*
Y274902D02*
D03*
Y272343D02*
D03*
Y269783D02*
D03*
Y267224D02*
D03*
Y264665D02*
D03*
X108465Y282579D02*
D03*
Y280020D02*
D03*
Y277461D02*
D03*
Y274902D02*
D03*
Y272343D02*
D03*
Y269783D02*
D03*
Y267224D02*
D03*
Y264665D02*
D03*
X20669Y281791D02*
D03*
Y279232D02*
D03*
Y276673D02*
D03*
Y274114D02*
D03*
Y271555D02*
D03*
Y268996D02*
D03*
Y266437D02*
D03*
Y263878D02*
D03*
X43898Y281791D02*
D03*
Y279232D02*
D03*
Y276673D02*
D03*
Y274114D02*
D03*
Y271555D02*
D03*
Y268996D02*
D03*
Y266437D02*
D03*
Y263878D02*
D03*
D29*
X168110Y271260D02*
D03*
X96850Y273622D02*
D03*
X32283Y272835D02*
D03*
D30*
X105020Y342079D02*
D03*
Y348079D02*
D03*
D31*
X78248Y366142D02*
D03*
D32*
X87303Y343701D02*
D03*
X78248D02*
D03*
X69193D02*
D03*
D33*
X91573Y405315D02*
D03*
X87833D02*
D03*
X84093D02*
D03*
Y415945D02*
D03*
X87833D02*
D03*
X91573D02*
D03*
D34*
X178130Y355709D02*
D03*
X173130D02*
D03*
X168130D02*
D03*
X163130D02*
D03*
X158130D02*
D03*
X153130D02*
D03*
X148130D02*
D03*
X143130D02*
D03*
Y392323D02*
D03*
X148130D02*
D03*
X153130D02*
D03*
X158130D02*
D03*
X163130D02*
D03*
X168130D02*
D03*
X173130D02*
D03*
X178130D02*
D03*
D35*
X168032Y352480D02*
Y355020D01*
X150098Y334547D02*
X168032Y352480D01*
X15453Y271555D02*
X20669D01*
X12402Y274606D02*
X15453Y271555D01*
X12402Y274606D02*
Y277165D01*
X79134Y280596D02*
Y284744D01*
X75590Y288287D02*
X79134Y284744D01*
X88190Y293800D02*
X103642D01*
X82284Y287894D02*
X88190Y293800D01*
X82284Y285532D02*
Y287894D01*
X90650Y394488D02*
X93996Y391142D01*
X77559Y394488D02*
X90650D01*
X76772Y395276D02*
X77559Y394488D01*
X76772Y395276D02*
Y403740D01*
X248999Y333622D02*
Y336073D01*
X212500Y406791D02*
Y417736D01*
X190610Y439626D02*
X212500Y417736D01*
X202321Y402600D02*
X203740Y401181D01*
X200272Y402600D02*
X202321D01*
X212322Y426706D02*
X212945Y426083D01*
X212322Y426706D02*
Y431606D01*
X225098Y406791D02*
X225492Y407185D01*
X238583Y388583D02*
X239272D01*
X238189Y388976D02*
X238583Y388583D01*
X237402Y388189D02*
X238189Y388976D01*
X78445Y269783D02*
X85236D01*
X78445D02*
X78740Y269488D01*
X97933Y348425D02*
X98280Y348079D01*
X105020D01*
X147146Y267421D02*
X156496D01*
X149508Y275098D02*
X156496D01*
X93996Y391142D02*
X95965D01*
X17618Y279232D02*
X20669D01*
X148031Y352067D02*
Y356102D01*
X81791Y280020D02*
X85236D01*
X82284Y285532D02*
X85236Y282579D01*
X145669Y278937D02*
X149508Y275098D01*
X152756Y277658D02*
X156496D01*
X148031Y389665D02*
Y391929D01*
X153032Y388602D02*
Y391929D01*
X220571Y442126D02*
X220618Y442078D01*
X195374Y382283D02*
X203740D01*
X194980Y381890D02*
X195374Y382283D01*
X218996Y362992D02*
Y373327D01*
X218799Y373523D02*
X218996Y373327D01*
X237008Y388583D02*
X237402Y388189D01*
X220618Y437008D02*
Y442078D01*
X186516Y388583D02*
X203740D01*
X148031Y389665D02*
X154997Y382700D01*
X203573Y385600D02*
X203740Y385433D01*
X153032Y388602D02*
X156634Y385000D01*
X182933D01*
X186516Y388583D01*
X154997Y382700D02*
X184472D01*
X187372Y385600D01*
X203573D01*
X228248Y406791D02*
X228372Y406668D01*
X20669Y281791D02*
Y287869D01*
X80730Y281081D02*
X81791Y280020D01*
X80730Y281081D02*
Y288400D01*
X88230Y295900D01*
X79134Y280596D02*
X82269Y277461D01*
X85236D01*
X185610Y437761D02*
Y439626D01*
Y437761D02*
X209350Y414021D01*
Y406791D02*
Y414021D01*
X228172Y406468D02*
X228372Y406668D01*
X228172Y401000D02*
Y406468D01*
X16200Y280650D02*
X17618Y279232D01*
X16200Y280650D02*
Y296400D01*
X16227Y276673D02*
X20669D01*
X225098Y407579D02*
X225492Y407185D01*
X225098Y407579D02*
Y410630D01*
X16200Y296400D02*
X32792Y312992D01*
X20669Y287869D02*
X43824Y311024D01*
X150098Y280315D02*
X152756Y277658D01*
X151772Y281791D02*
X153347Y280217D01*
X156496D01*
X112121Y426294D02*
X126353D01*
X104823Y418996D02*
X112121Y426294D01*
X104823Y393209D02*
Y418996D01*
X16535Y367224D02*
X63878D01*
X1969Y381791D02*
X16535Y367224D01*
X1969Y381791D02*
Y389249D01*
X7503Y394783D01*
X110074Y421294D02*
X126353D01*
X106890Y418110D02*
X110074Y421294D01*
X106890Y393012D02*
Y418110D01*
X63878Y367224D02*
X69980Y373327D01*
X84941D01*
X104823Y393209D01*
X64075Y365453D02*
X70571Y371949D01*
X85827D01*
X106890Y393012D01*
X14469Y365453D02*
X64075D01*
X7995Y358980D02*
X14469Y365453D01*
X7995Y352854D02*
Y358980D01*
X237008Y379134D02*
X250787D01*
X215650Y368209D02*
Y373523D01*
X212598Y365158D02*
X215650Y368209D01*
X212598Y260138D02*
Y365158D01*
Y260138D02*
X222599Y250138D01*
X238605D01*
X221949Y314235D02*
X239295Y296890D01*
X221949Y314235D02*
Y373523D01*
X250787Y379134D02*
X259744Y370177D01*
Y256276D02*
Y370177D01*
X248605Y245138D02*
X259744Y256276D01*
X228248Y349373D02*
X238999Y338622D01*
X228248Y349373D02*
Y373523D01*
X248999Y333622D02*
X256201Y340824D01*
Y360925D01*
X243602Y373523D02*
X256201Y360925D01*
X231398Y373523D02*
X243602D01*
X249294Y291890D02*
Y294406D01*
X241732Y301969D02*
X249294Y294406D01*
X237205Y301969D02*
X241732D01*
X225295Y313878D02*
X237205Y301969D01*
X225295Y313878D02*
Y373327D01*
X225098Y373523D02*
X225295Y373327D01*
X108957Y312992D02*
X148031Y352067D01*
X32792Y312992D02*
X108957D01*
X112303Y311024D02*
X153032Y351752D01*
X43824Y311024D02*
X112303D01*
X153032Y351752D02*
Y356102D01*
X88230Y295900D02*
X100920D01*
X158031Y353012D01*
Y356102D01*
X151772Y281791D02*
Y332283D01*
X173031Y353543D01*
Y356102D01*
X150098Y280315D02*
Y334547D01*
X218799Y373523D02*
Y381890D01*
X229035Y392126D01*
X237008Y382283D02*
X240417D01*
X237241Y385200D02*
X242700D01*
X237008Y385433D02*
X237241Y385200D01*
X75787Y277413D02*
Y284252D01*
Y277413D02*
X80857Y272343D01*
X85236D01*
X78740Y266535D02*
Y269488D01*
X103642Y293800D02*
X163031Y353189D01*
Y356102D01*
X146752Y269980D02*
X156496D01*
X145472Y271260D02*
X146752Y269980D01*
X145472Y271260D02*
Y271654D01*
X138189Y278937D02*
X145472Y271654D01*
D36*
X52362Y282284D02*
Y283268D01*
X46850Y276772D02*
X52362Y282284D01*
X43996Y276772D02*
X46850D01*
X114173Y276181D02*
X116142D01*
X182579Y275098D02*
X188189Y280709D01*
X179724Y275098D02*
X182579D01*
X185236Y274606D02*
X189469D01*
X183169Y272539D02*
X185236Y274606D01*
X179724Y272539D02*
X183169D01*
X185335Y269980D02*
X185827Y270472D01*
X179724Y269980D02*
X185335D01*
X43898Y276673D02*
X43996Y276772D01*
X43898Y274114D02*
X43996Y274016D01*
X47638D01*
X50197Y276575D01*
X52362D01*
X49213Y272441D02*
X51181D01*
X48425Y271654D02*
X49213Y272441D01*
X43996Y271654D02*
X48425D01*
X43898Y271555D02*
X43996Y271654D01*
X115748Y281890D02*
Y282874D01*
X111319Y277461D02*
X115748Y281890D01*
X108465Y277461D02*
X111319D01*
X108465Y274902D02*
X112894D01*
X114173Y276181D01*
X108465Y272343D02*
X113386D01*
X147613Y409030D02*
Y416294D01*
X224618Y431606D02*
X224902Y431890D01*
X219015Y431606D02*
X224618D01*
X247539Y271654D02*
X248425D01*
X241831Y404035D02*
X245866D01*
X245374Y403543D02*
X245866Y404035D01*
X245374Y398031D02*
Y403543D01*
X239469Y406398D02*
Y409842D01*
Y406398D02*
X241831Y404035D01*
X237008Y398031D02*
X245374D01*
X178032Y356102D02*
X178248Y355886D01*
Y349410D02*
Y355886D01*
X121019Y416294D02*
X126353D01*
X44094Y281988D02*
Y287992D01*
X91573Y402817D02*
Y405315D01*
Y402817D02*
X93996Y400394D01*
Y397835D02*
Y400394D01*
X81004Y397835D02*
Y402226D01*
X84093Y405315D01*
X81004Y397835D02*
X87697D01*
X224902Y431890D02*
X228289D01*
X231693Y428486D01*
X248605Y255138D02*
X251541Y258073D01*
Y268538D01*
X248425Y271654D02*
X251541Y268538D01*
X248327Y360531D02*
X253341Y355517D01*
X248999Y343622D02*
Y348490D01*
X253341Y352832D01*
Y355517D01*
X236417Y406791D02*
X239469Y409842D01*
X231398Y406791D02*
X236417D01*
X141189Y285730D02*
X141929Y285630D01*
X249294Y301890D02*
X251841Y304436D01*
Y314793D01*
X247835Y318799D02*
X251841Y314793D01*
X178032Y391929D02*
X178542Y390999D01*
X178130Y392323D02*
X183957D01*
X184547Y392913D01*
D37*
X76772Y410433D02*
Y415748D01*
X81890Y420866D01*
X86221D01*
X87833Y419254D01*
Y415945D02*
Y419254D01*
X70473Y410433D02*
X76772D01*
X69193Y409154D02*
X70473Y410433D01*
D38*
X240059Y438189D02*
X246120D01*
X38408Y435553D02*
X39589D01*
X68996Y332480D02*
Y343504D01*
X88287Y332480D02*
Y342717D01*
X64764Y287992D02*
X64961Y288189D01*
X44094Y287992D02*
X55118D01*
X55708D02*
X64764D01*
X87303Y343701D02*
Y355118D01*
X112598Y380413D01*
Y402756D01*
X119661Y409818D01*
Y414936D01*
X174709Y349410D02*
X178248D01*
X163500Y338200D02*
X174709Y349410D01*
X163500Y298300D02*
Y338200D01*
Y298300D02*
X179320Y282480D01*
X180118D01*
X33446Y287500D02*
X43602D01*
X44094Y287992D01*
X48228Y405905D02*
X51476Y409154D01*
X17503Y390830D02*
X32579Y405905D01*
X17503Y389783D02*
Y390830D01*
X32579Y405905D02*
X40453D01*
X48228D01*
X89272Y341732D02*
X97933D01*
X87303Y343701D02*
X88287Y342717D01*
X89272Y341732D01*
D39*
X274528Y420866D02*
X280413D01*
X273543Y419882D02*
X274528Y420866D01*
X270669Y419882D02*
X273543D01*
X277244Y423425D02*
X280413D01*
X273543Y427126D02*
X277244Y423425D01*
X270669Y427362D02*
X273543D01*
Y427126D02*
Y427362D01*
X258740Y419882D02*
X261614D01*
X255906Y422716D02*
X258740Y419882D01*
X248372Y422716D02*
X255906D01*
X258740Y427362D02*
X261614D01*
X255906Y424527D02*
X258740Y427362D01*
X247621Y424527D02*
X255906D01*
X247455Y421800D02*
X248372Y422716D01*
X246705Y423611D02*
X247621Y424527D01*
X225272Y421800D02*
X247455D01*
X218172Y414700D02*
X225272Y421800D01*
X224521Y423611D02*
X246705D01*
X216361Y415450D02*
X224521Y423611D01*
X218172Y411769D02*
Y414700D01*
X216361Y411853D02*
Y415450D01*
X218172Y411769D02*
X218799Y411142D01*
Y406791D02*
Y411142D01*
X215650D02*
X216361Y411853D01*
X215650Y406791D02*
Y411142D01*
D40*
X12550Y268996D02*
X20669D01*
X11400Y270146D02*
X12550Y268996D01*
X108465Y282579D02*
Y285236D01*
X111417Y288189D01*
X51476Y409154D02*
X53543D01*
X55216Y391142D02*
X81004D01*
X40453Y405905D02*
X55216Y391142D01*
D41*
X55708Y287992D02*
X67716Y275984D01*
X129724Y285630D02*
X138189D01*
X127165Y288189D02*
X129724Y285630D01*
X111417Y288189D02*
X127165D01*
D42*
X0Y234529D02*
X297521D01*
X0D02*
Y454447D01*
X297521D01*
Y234529D02*
Y454447D01*
D43*
X170610Y439626D02*
D03*
Y444626D02*
D03*
X175610Y439626D02*
D03*
Y444626D02*
D03*
X180610Y439626D02*
D03*
Y444626D02*
D03*
X185610Y439626D02*
D03*
Y444626D02*
D03*
X190610Y439626D02*
D03*
D44*
Y444626D02*
D03*
D45*
X290945Y410610D02*
D03*
Y436240D02*
D03*
D46*
X7995Y352854D02*
D03*
X17995Y347854D02*
D03*
X7995Y342854D02*
D03*
X17995Y337854D02*
D03*
X7503Y394783D02*
D03*
X17503Y389783D02*
D03*
X7503Y384783D02*
D03*
X17503Y379783D02*
D03*
X248605Y245138D02*
D03*
X238605Y250138D02*
D03*
X248605Y255138D02*
D03*
X238605Y260138D02*
D03*
X249294Y291890D02*
D03*
X239295Y296890D02*
D03*
X249294Y301890D02*
D03*
X239295Y306890D02*
D03*
X248999Y333622D02*
D03*
X238999Y338622D02*
D03*
X248999Y343622D02*
D03*
X238999Y348622D02*
D03*
D47*
X155512Y307086D02*
D03*
X169291D02*
D03*
X88583D02*
D03*
X102362D02*
D03*
X19980Y307480D02*
D03*
X33760D02*
D03*
D48*
X43898Y342520D02*
D03*
X275590Y303150D02*
D03*
Y381890D02*
D03*
D49*
X94882Y422047D02*
D03*
X221358Y426083D02*
D03*
X136024Y265354D02*
D03*
X68701Y282677D02*
D03*
X68898Y267421D02*
D03*
X111122Y409842D02*
D03*
X80709Y442126D02*
D03*
X73228Y446850D02*
D03*
X62598D02*
D03*
X74016Y439764D02*
D03*
X62598Y440551D02*
D03*
X180118Y282480D02*
D03*
X245866Y404035D02*
D03*
X224902Y431890D02*
D03*
X240059Y438189D02*
D03*
X141929Y285630D02*
D03*
X111417Y288189D02*
D03*
X206972Y368700D02*
D03*
X64961Y288189D02*
D03*
X90551Y330709D02*
D03*
X37008Y418012D02*
D03*
X67936Y426577D02*
D03*
X3937Y419783D02*
D03*
X10138Y419685D02*
D03*
X15650Y419783D02*
D03*
X3740Y413681D02*
D03*
X3839Y407972D02*
D03*
X10039Y413681D02*
D03*
X15551Y413779D02*
D03*
X10039Y408071D02*
D03*
X15650D02*
D03*
X195374Y370669D02*
D03*
X2756Y272736D02*
D03*
D50*
X84252Y416535D02*
D03*
X185827Y270472D02*
D03*
X200272Y402600D02*
D03*
X148302Y408637D02*
D03*
X149385Y426354D02*
D03*
X211772Y442500D02*
D03*
X239272Y388583D02*
D03*
X150369Y421038D02*
D03*
X163780Y277756D02*
D03*
X168110D02*
D03*
X172441D02*
D03*
X163780Y273425D02*
D03*
X168110D02*
D03*
X172441D02*
D03*
X163780Y269094D02*
D03*
X168110D02*
D03*
X172441D02*
D03*
X163780Y264764D02*
D03*
X168110D02*
D03*
X172441D02*
D03*
X92520Y280118D02*
D03*
X96850D02*
D03*
X101181D02*
D03*
X92520Y275787D02*
D03*
X96850D02*
D03*
X101181D02*
D03*
X92520Y271457D02*
D03*
X96850D02*
D03*
X101181D02*
D03*
X92520Y267126D02*
D03*
X96850D02*
D03*
X101181D02*
D03*
X27953Y279331D02*
D03*
X32283D02*
D03*
X36614D02*
D03*
X27953Y275000D02*
D03*
X32283D02*
D03*
X36614D02*
D03*
X27953Y270669D02*
D03*
X32283D02*
D03*
X36614D02*
D03*
X27953Y266339D02*
D03*
X32283D02*
D03*
X36614D02*
D03*
X261417Y423622D02*
D03*
X12402Y277165D02*
D03*
X43898Y294685D02*
D03*
X158169Y394488D02*
D03*
X162500D02*
D03*
X168405Y393701D02*
D03*
X172736Y394094D02*
D03*
X281594Y416929D02*
D03*
X68996Y332480D02*
D03*
X183760Y393062D02*
D03*
X228172Y401000D02*
D03*
X16227Y276673D02*
D03*
X26100Y287400D02*
D03*
X225098Y410630D02*
D03*
X229035Y392126D02*
D03*
X240417Y382283D02*
D03*
X242700Y385200D02*
D03*
X125295Y431201D02*
D03*
X75689Y332480D02*
D03*
X81595D02*
D03*
X78248Y343701D02*
D03*
X143130Y355709D02*
D03*
X191240Y392913D02*
D03*
X147613Y431294D02*
D03*
X141117Y408834D02*
D03*
X143130Y392323D02*
D03*
X214618Y437008D02*
D03*
X257670Y438189D02*
D03*
X270669Y423622D02*
D03*
X248130Y409842D02*
D03*
X254232Y397736D02*
D03*
X237500Y402756D02*
D03*
X241634Y360531D02*
D03*
X217372Y356153D02*
D03*
X241142Y318799D02*
D03*
X240846Y271654D02*
D03*
X200984Y377362D02*
D03*
X231693Y416936D02*
D03*
X226181Y443307D02*
D03*
D51*
X51181Y272441D02*
D03*
X113386Y272441D02*
D03*
X111417Y269685D02*
D03*
X40945Y268898D02*
D03*
X105512Y269685D02*
D03*
X183071Y267323D02*
D03*
X176772D02*
D03*
X47244Y268898D02*
D03*
M02*
