G04 Layer_Color=20142*
%FSLAX25Y25*%
%MOIN*%
G70*
G01*
G75*
%ADD42C,0.00394*%
%ADD83R,0.08674X0.07887*%
%ADD84R,0.04737X0.05131*%
%ADD85R,0.04300X0.04000*%
%ADD86R,0.07887X0.05131*%
%ADD87O,0.08477X0.03162*%
%ADD88O,0.03162X0.08477*%
%ADD89R,0.05300X0.09800*%
%ADD90R,0.05131X0.04737*%
%ADD91R,0.06115X0.02375*%
%ADD92R,0.08280X0.08280*%
%ADD93R,0.06312X0.07099*%
%ADD94R,0.05524X0.03162*%
%ADD95R,0.09800X0.05300*%
%ADD96O,0.06902X0.03162*%
%ADD97R,0.08871X0.04737*%
%ADD98R,0.27965X0.23044*%
%ADD99R,0.20485X0.20485*%
%ADD100R,0.20485X0.20485*%
%ADD101O,0.06312X0.02572*%
%ADD102R,0.14186X0.20485*%
%ADD103R,0.04000X0.04300*%
%ADD104R,0.13398X0.09068*%
%ADD105R,0.04343X0.09068*%
%ADD106R,0.03162X0.05131*%
%ADD107R,0.03162X0.07296*%
%ADD108C,0.04800*%
%ADD109R,0.04800X0.04800*%
G04:AMPARAMS|DCode=110|XSize=63.12mil|YSize=106.42mil|CornerRadius=0mil|HoleSize=0mil|Usage=FLASHONLY|Rotation=90.000|XOffset=0mil|YOffset=0mil|HoleType=Round|Shape=Octagon|*
%AMOCTAGOND110*
4,1,8,-0.05321,-0.01578,-0.05321,0.01578,-0.03743,0.03156,0.03743,0.03156,0.05321,0.01578,0.05321,-0.01578,0.03743,-0.03156,-0.03743,-0.03156,-0.05321,-0.01578,0.0*
%
%ADD110OCTAGOND110*%

%ADD111C,0.07800*%
%ADD112C,0.00800*%
%ADD113C,0.05524*%
%ADD114C,0.06800*%
%ADD115C,0.05800*%
%ADD116C,0.03162*%
%ADD117C,0.02572*%
D42*
Y234529D02*
X297521D01*
X0D02*
Y454447D01*
X297521D01*
Y234529D02*
Y454447D01*
D83*
X51476Y409154D02*
D03*
X69193D02*
D03*
D84*
X219015Y431606D02*
D03*
X212322D02*
D03*
X245374Y398031D02*
D03*
X252067D02*
D03*
X213878Y442126D02*
D03*
X220571D02*
D03*
X205216Y367717D02*
D03*
X198524D02*
D03*
X113164Y415133D02*
D03*
X119858D02*
D03*
X147810Y408834D02*
D03*
X141117D02*
D03*
X247539Y271654D02*
D03*
X240846D02*
D03*
X145472Y265748D02*
D03*
X138780D02*
D03*
Y271260D02*
D03*
X145472D02*
D03*
X247835Y318799D02*
D03*
X241142D02*
D03*
X78149Y267717D02*
D03*
X71457D02*
D03*
X68701Y282677D02*
D03*
X75394D02*
D03*
X74409Y275984D02*
D03*
X67716D02*
D03*
X248327Y360531D02*
D03*
X241634D02*
D03*
X75394Y288189D02*
D03*
X68701D02*
D03*
X11347Y269600D02*
D03*
X4654D02*
D03*
X4654Y275600D02*
D03*
X11347D02*
D03*
X26754Y287500D02*
D03*
X33446D02*
D03*
X246162Y409842D02*
D03*
X239469D02*
D03*
X191240Y392913D02*
D03*
X184547D02*
D03*
X75689Y332480D02*
D03*
X68996D02*
D03*
X81595D02*
D03*
X88287D02*
D03*
D85*
X212945Y426083D02*
D03*
X218945D02*
D03*
X220618Y437008D02*
D03*
X214618D02*
D03*
D86*
X40453Y405905D02*
D03*
Y417717D02*
D03*
X32579Y405905D02*
D03*
Y417717D02*
D03*
D87*
X203740Y379134D02*
D03*
Y382283D02*
D03*
Y385433D02*
D03*
Y388583D02*
D03*
Y391732D02*
D03*
Y394882D02*
D03*
Y398031D02*
D03*
Y401181D02*
D03*
X237008D02*
D03*
Y398031D02*
D03*
Y394882D02*
D03*
Y391732D02*
D03*
Y388583D02*
D03*
Y385433D02*
D03*
Y382283D02*
D03*
Y379134D02*
D03*
D88*
X209350Y406791D02*
D03*
X212500D02*
D03*
X215650D02*
D03*
X218799D02*
D03*
X221949D02*
D03*
X225098D02*
D03*
X228248D02*
D03*
X231398D02*
D03*
Y373523D02*
D03*
X228248D02*
D03*
X225098D02*
D03*
X221949D02*
D03*
X218799D02*
D03*
X215650D02*
D03*
X209350D02*
D03*
X212500D02*
D03*
D89*
X246120Y438189D02*
D03*
X257670D02*
D03*
D90*
X217372Y362846D02*
D03*
Y356153D02*
D03*
X87697Y397835D02*
D03*
Y391142D02*
D03*
X81004D02*
D03*
Y397835D02*
D03*
X93996D02*
D03*
Y391142D02*
D03*
X76772Y403740D02*
D03*
Y410433D02*
D03*
X138189Y278937D02*
D03*
Y285630D02*
D03*
X145669Y278937D02*
D03*
Y285630D02*
D03*
X194472Y381746D02*
D03*
Y375054D02*
D03*
X44094Y294685D02*
D03*
Y287992D02*
D03*
X97933Y348425D02*
D03*
Y341732D02*
D03*
X178248Y342717D02*
D03*
Y349410D02*
D03*
X52953Y276280D02*
D03*
Y282972D02*
D03*
X116535Y275787D02*
D03*
Y282480D02*
D03*
X189469Y274311D02*
D03*
Y281004D02*
D03*
D91*
X280413Y418307D02*
D03*
Y420866D02*
D03*
Y423425D02*
D03*
Y425984D02*
D03*
Y428543D02*
D03*
D92*
X290945Y418701D02*
D03*
Y428150D02*
D03*
D93*
X281299Y410827D02*
D03*
Y436024D02*
D03*
D94*
X261614Y419882D02*
D03*
Y423622D02*
D03*
Y427362D02*
D03*
X270669D02*
D03*
Y423622D02*
D03*
Y419882D02*
D03*
X227854Y441929D02*
D03*
Y434449D02*
D03*
X236516Y438189D02*
D03*
D95*
X231693Y428486D02*
D03*
Y416936D02*
D03*
D96*
X147613Y416294D02*
D03*
Y421294D02*
D03*
Y426294D02*
D03*
Y431294D02*
D03*
X126353Y416294D02*
D03*
Y421294D02*
D03*
Y426294D02*
D03*
Y431294D02*
D03*
D97*
X67936Y426577D02*
D03*
Y444530D02*
D03*
D98*
X39589Y435553D02*
D03*
D99*
X10925Y439764D02*
D03*
X10236Y414567D02*
D03*
D100*
X177165Y248031D02*
D03*
X151575D02*
D03*
X105118Y247441D02*
D03*
X82677Y248031D02*
D03*
X39469Y247244D02*
D03*
X17717Y247638D02*
D03*
D101*
X156496Y280217D02*
D03*
Y277658D02*
D03*
Y275098D02*
D03*
Y272539D02*
D03*
Y269980D02*
D03*
Y267421D02*
D03*
Y264862D02*
D03*
Y262303D02*
D03*
X179724Y280217D02*
D03*
Y277658D02*
D03*
Y275098D02*
D03*
Y272539D02*
D03*
Y269980D02*
D03*
Y267421D02*
D03*
Y264862D02*
D03*
Y262303D02*
D03*
X85236Y282579D02*
D03*
Y280020D02*
D03*
Y277461D02*
D03*
Y274902D02*
D03*
Y272343D02*
D03*
Y269783D02*
D03*
Y267224D02*
D03*
Y264665D02*
D03*
X108465Y282579D02*
D03*
Y280020D02*
D03*
Y277461D02*
D03*
Y274902D02*
D03*
Y272343D02*
D03*
Y269783D02*
D03*
Y267224D02*
D03*
Y264665D02*
D03*
X20669Y281791D02*
D03*
Y279232D02*
D03*
Y276673D02*
D03*
Y274114D02*
D03*
Y271555D02*
D03*
Y268996D02*
D03*
Y266437D02*
D03*
Y263878D02*
D03*
X43898Y281791D02*
D03*
Y279232D02*
D03*
Y276673D02*
D03*
Y274114D02*
D03*
Y271555D02*
D03*
Y268996D02*
D03*
Y266437D02*
D03*
Y263878D02*
D03*
D102*
X168110Y271260D02*
D03*
X96850Y273622D02*
D03*
X32283Y272835D02*
D03*
D103*
X105020Y342079D02*
D03*
Y348079D02*
D03*
D104*
X78248Y366142D02*
D03*
D105*
X87303Y343701D02*
D03*
X78248D02*
D03*
X69193D02*
D03*
D106*
X91573Y405315D02*
D03*
X87833D02*
D03*
X84093D02*
D03*
Y415945D02*
D03*
X87833D02*
D03*
X91573D02*
D03*
D107*
X178130Y355709D02*
D03*
X173130D02*
D03*
X168130D02*
D03*
X163130D02*
D03*
X158130D02*
D03*
X153130D02*
D03*
X148130D02*
D03*
X143130D02*
D03*
Y392323D02*
D03*
X148130D02*
D03*
X153130D02*
D03*
X158130D02*
D03*
X163130D02*
D03*
X168130D02*
D03*
X173130D02*
D03*
X178130D02*
D03*
D108*
X170610Y439626D02*
D03*
Y444626D02*
D03*
X175610Y439626D02*
D03*
Y444626D02*
D03*
X180610Y439626D02*
D03*
Y444626D02*
D03*
X185610Y439626D02*
D03*
Y444626D02*
D03*
X190610Y439626D02*
D03*
D109*
Y444626D02*
D03*
D110*
X290945Y410610D02*
D03*
Y436240D02*
D03*
D111*
X7995Y352854D02*
D03*
X17995Y347854D02*
D03*
X7995Y342854D02*
D03*
X17995Y337854D02*
D03*
X7503Y394783D02*
D03*
X17503Y389783D02*
D03*
X7503Y384783D02*
D03*
X17503Y379783D02*
D03*
X248605Y245138D02*
D03*
X238605Y250138D02*
D03*
X248605Y255138D02*
D03*
X238605Y260138D02*
D03*
X249294Y291890D02*
D03*
X239295Y296890D02*
D03*
X249294Y301890D02*
D03*
X239295Y306890D02*
D03*
X248999Y333622D02*
D03*
X238999Y338622D02*
D03*
X248999Y343622D02*
D03*
X238999Y348622D02*
D03*
D112*
X15082Y358366D02*
D03*
X14590Y400295D02*
D03*
X245692Y265650D02*
D03*
X246381Y312402D02*
D03*
X246086Y354134D02*
D03*
D113*
X155512Y307086D02*
D03*
X169291D02*
D03*
X88583D02*
D03*
X102362D02*
D03*
X19980Y307480D02*
D03*
X33760D02*
D03*
D114*
X43898Y342520D02*
D03*
X275590Y303150D02*
D03*
Y381890D02*
D03*
D115*
X94882Y422047D02*
D03*
X221358Y426083D02*
D03*
X136024Y265354D02*
D03*
X68701Y282677D02*
D03*
X68898Y267421D02*
D03*
X111122Y409842D02*
D03*
X80709Y442126D02*
D03*
X73228Y446850D02*
D03*
X62598D02*
D03*
X74016Y439764D02*
D03*
X62598Y440551D02*
D03*
X180118Y282480D02*
D03*
X245866Y404035D02*
D03*
X224902Y431890D02*
D03*
X240059Y438189D02*
D03*
X141929Y285630D02*
D03*
X111417Y288189D02*
D03*
X206972Y368700D02*
D03*
X64961Y288189D02*
D03*
X90551Y330709D02*
D03*
X37008Y418012D02*
D03*
X67936Y426577D02*
D03*
X3937Y419783D02*
D03*
X10138Y419685D02*
D03*
X15650Y419783D02*
D03*
X3740Y413681D02*
D03*
X3839Y407972D02*
D03*
X10039Y413681D02*
D03*
X15551Y413779D02*
D03*
X10039Y408071D02*
D03*
X15650D02*
D03*
X195374Y370669D02*
D03*
X2756Y272736D02*
D03*
D116*
X84252Y416535D02*
D03*
X185827Y270472D02*
D03*
X200272Y402600D02*
D03*
X148302Y408637D02*
D03*
X149385Y426354D02*
D03*
X211772Y442500D02*
D03*
X239272Y388583D02*
D03*
X150369Y421038D02*
D03*
X163780Y277756D02*
D03*
X168110D02*
D03*
X172441D02*
D03*
X163780Y273425D02*
D03*
X168110D02*
D03*
X172441D02*
D03*
X163780Y269094D02*
D03*
X168110D02*
D03*
X172441D02*
D03*
X163780Y264764D02*
D03*
X168110D02*
D03*
X172441D02*
D03*
X92520Y280118D02*
D03*
X96850D02*
D03*
X101181D02*
D03*
X92520Y275787D02*
D03*
X96850D02*
D03*
X101181D02*
D03*
X92520Y271457D02*
D03*
X96850D02*
D03*
X101181D02*
D03*
X92520Y267126D02*
D03*
X96850D02*
D03*
X101181D02*
D03*
X27953Y279331D02*
D03*
X32283D02*
D03*
X36614D02*
D03*
X27953Y275000D02*
D03*
X32283D02*
D03*
X36614D02*
D03*
X27953Y270669D02*
D03*
X32283D02*
D03*
X36614D02*
D03*
X27953Y266339D02*
D03*
X32283D02*
D03*
X36614D02*
D03*
X261417Y423622D02*
D03*
X12402Y277165D02*
D03*
X43898Y294685D02*
D03*
X158169Y394488D02*
D03*
X162500D02*
D03*
X168405Y393701D02*
D03*
X172736Y394094D02*
D03*
X281594Y416929D02*
D03*
X68996Y332480D02*
D03*
X183760Y393062D02*
D03*
X228172Y401000D02*
D03*
X16227Y276673D02*
D03*
X26100Y287400D02*
D03*
X225098Y410630D02*
D03*
X229035Y392126D02*
D03*
X240417Y382283D02*
D03*
X242700Y385200D02*
D03*
X125295Y431201D02*
D03*
X75689Y332480D02*
D03*
X81595D02*
D03*
X78248Y343701D02*
D03*
X143130Y355709D02*
D03*
X191240Y392913D02*
D03*
X147613Y431294D02*
D03*
X141117Y408834D02*
D03*
X143130Y392323D02*
D03*
X214618Y437008D02*
D03*
X257670Y438189D02*
D03*
X270669Y423622D02*
D03*
X248130Y409842D02*
D03*
X254232Y397736D02*
D03*
X237500Y402756D02*
D03*
X241634Y360531D02*
D03*
X217372Y356153D02*
D03*
X241142Y318799D02*
D03*
X240846Y271654D02*
D03*
X200984Y377362D02*
D03*
X231693Y416936D02*
D03*
X226181Y443307D02*
D03*
D117*
X51181Y272441D02*
D03*
X113386Y272441D02*
D03*
X111417Y269685D02*
D03*
X40945Y268898D02*
D03*
X105512Y269685D02*
D03*
X183071Y267323D02*
D03*
X176772D02*
D03*
X47244Y268898D02*
D03*
M02*
