G04 Layer_Color=25308*
%FSLAX25Y25*%
%MOIN*%
G70*
G01*
G75*
%ADD10R,0.07874X0.07087*%
%ADD11R,0.03937X0.04331*%
%ADD12R,0.03500X0.03200*%
%ADD13R,0.07087X0.04331*%
%ADD14O,0.07677X0.02362*%
%ADD15O,0.02362X0.07677*%
%ADD16R,0.04500X0.09000*%
%ADD17R,0.04331X0.03937*%
%ADD18R,0.05315X0.01575*%
%ADD19R,0.07480X0.07480*%
%ADD20R,0.05512X0.06299*%
%ADD21R,0.04724X0.02362*%
%ADD22R,0.09000X0.04500*%
%ADD23O,0.06102X0.02362*%
%ADD24R,0.08071X0.03937*%
%ADD25R,0.27165X0.22244*%
%ADD26R,0.19685X0.19685*%
%ADD27R,0.19685X0.19685*%
%ADD28O,0.05512X0.01772*%
%ADD29R,0.13386X0.19685*%
%ADD30R,0.03200X0.03500*%
%ADD31R,0.12598X0.08268*%
%ADD32R,0.03543X0.08268*%
%ADD33R,0.02362X0.04331*%
%ADD34R,0.02362X0.06496*%
%ADD42C,0.00394*%
%ADD43C,0.04000*%
%ADD44R,0.04000X0.04000*%
G04:AMPARAMS|DCode=45|XSize=55.12mil|YSize=98.43mil|CornerRadius=0mil|HoleSize=0mil|Usage=FLASHONLY|Rotation=90.000|XOffset=0mil|YOffset=0mil|HoleType=Round|Shape=Octagon|*
%AMOCTAGOND45*
4,1,8,-0.04921,-0.01378,-0.04921,0.01378,-0.03543,0.02756,0.03543,0.02756,0.04921,0.01378,0.04921,-0.01378,0.03543,-0.02756,-0.03543,-0.02756,-0.04921,-0.01378,0.0*
%
%ADD45OCTAGOND45*%

%ADD46C,0.07000*%
%ADD47C,0.04724*%
%ADD48C,0.06000*%
D10*
X51476Y409154D02*
D03*
X69193D02*
D03*
D11*
X219015Y431606D02*
D03*
X212322D02*
D03*
X245374Y398031D02*
D03*
X252067D02*
D03*
X213878Y442126D02*
D03*
X220571D02*
D03*
X205216Y367717D02*
D03*
X198524D02*
D03*
X113164Y415133D02*
D03*
X119858D02*
D03*
X147810Y408834D02*
D03*
X141117D02*
D03*
X247539Y271654D02*
D03*
X240846D02*
D03*
X145472Y265748D02*
D03*
X138780D02*
D03*
Y271260D02*
D03*
X145472D02*
D03*
X247835Y318799D02*
D03*
X241142D02*
D03*
X78149Y267717D02*
D03*
X71457D02*
D03*
X68701Y282677D02*
D03*
X75394D02*
D03*
X74409Y275984D02*
D03*
X67716D02*
D03*
X248327Y360531D02*
D03*
X241634D02*
D03*
X75394Y288189D02*
D03*
X68701D02*
D03*
X11347Y269600D02*
D03*
X4654D02*
D03*
X4654Y275600D02*
D03*
X11347D02*
D03*
X26754Y287500D02*
D03*
X33446D02*
D03*
X246162Y409842D02*
D03*
X239469D02*
D03*
X191240Y392913D02*
D03*
X184547D02*
D03*
X75689Y332480D02*
D03*
X68996D02*
D03*
X81595D02*
D03*
X88287D02*
D03*
D12*
X212945Y426083D02*
D03*
X218945D02*
D03*
X220618Y437008D02*
D03*
X214618D02*
D03*
D13*
X40453Y405905D02*
D03*
Y417717D02*
D03*
X32579Y405905D02*
D03*
Y417717D02*
D03*
D14*
X203740Y379134D02*
D03*
Y382283D02*
D03*
Y385433D02*
D03*
Y388583D02*
D03*
Y391732D02*
D03*
Y394882D02*
D03*
Y398031D02*
D03*
Y401181D02*
D03*
X237008D02*
D03*
Y398031D02*
D03*
Y394882D02*
D03*
Y391732D02*
D03*
Y388583D02*
D03*
Y385433D02*
D03*
Y382283D02*
D03*
Y379134D02*
D03*
D15*
X209350Y406791D02*
D03*
X212500D02*
D03*
X215650D02*
D03*
X218799D02*
D03*
X221949D02*
D03*
X225098D02*
D03*
X228248D02*
D03*
X231398D02*
D03*
Y373523D02*
D03*
X228248D02*
D03*
X225098D02*
D03*
X221949D02*
D03*
X218799D02*
D03*
X215650D02*
D03*
X209350D02*
D03*
X212500D02*
D03*
D16*
X246120Y438189D02*
D03*
X257670D02*
D03*
D17*
X217372Y362846D02*
D03*
Y356153D02*
D03*
X87697Y397835D02*
D03*
Y391142D02*
D03*
X81004D02*
D03*
Y397835D02*
D03*
X93996D02*
D03*
Y391142D02*
D03*
X76772Y403740D02*
D03*
Y410433D02*
D03*
X138189Y278937D02*
D03*
Y285630D02*
D03*
X145669Y278937D02*
D03*
Y285630D02*
D03*
X194472Y381746D02*
D03*
Y375054D02*
D03*
X44094Y294685D02*
D03*
Y287992D02*
D03*
X97933Y348425D02*
D03*
Y341732D02*
D03*
X178248Y342717D02*
D03*
Y349410D02*
D03*
X52953Y276280D02*
D03*
Y282972D02*
D03*
X116535Y275787D02*
D03*
Y282480D02*
D03*
X189469Y274311D02*
D03*
Y281004D02*
D03*
D18*
X280413Y418307D02*
D03*
Y420866D02*
D03*
Y423425D02*
D03*
Y425984D02*
D03*
Y428543D02*
D03*
D19*
X290945Y418701D02*
D03*
Y428150D02*
D03*
D20*
X281299Y410827D02*
D03*
Y436024D02*
D03*
D21*
X261614Y419882D02*
D03*
Y423622D02*
D03*
Y427362D02*
D03*
X270669D02*
D03*
Y423622D02*
D03*
Y419882D02*
D03*
X227854Y441929D02*
D03*
Y434449D02*
D03*
X236516Y438189D02*
D03*
D22*
X231693Y428486D02*
D03*
Y416936D02*
D03*
D23*
X147613Y416294D02*
D03*
Y421294D02*
D03*
Y426294D02*
D03*
Y431294D02*
D03*
X126353Y416294D02*
D03*
Y421294D02*
D03*
Y426294D02*
D03*
Y431294D02*
D03*
D24*
X67936Y426577D02*
D03*
Y444530D02*
D03*
D25*
X39589Y435553D02*
D03*
D26*
X10925Y439764D02*
D03*
X10236Y414567D02*
D03*
D27*
X177165Y248031D02*
D03*
X151575D02*
D03*
X105118Y247441D02*
D03*
X82677Y248031D02*
D03*
X39469Y247244D02*
D03*
X17717Y247638D02*
D03*
D28*
X156496Y280217D02*
D03*
Y277658D02*
D03*
Y275098D02*
D03*
Y272539D02*
D03*
Y269980D02*
D03*
Y267421D02*
D03*
Y264862D02*
D03*
Y262303D02*
D03*
X179724Y280217D02*
D03*
Y277658D02*
D03*
Y275098D02*
D03*
Y272539D02*
D03*
Y269980D02*
D03*
Y267421D02*
D03*
Y264862D02*
D03*
Y262303D02*
D03*
X85236Y282579D02*
D03*
Y280020D02*
D03*
Y277461D02*
D03*
Y274902D02*
D03*
Y272343D02*
D03*
Y269783D02*
D03*
Y267224D02*
D03*
Y264665D02*
D03*
X108465Y282579D02*
D03*
Y280020D02*
D03*
Y277461D02*
D03*
Y274902D02*
D03*
Y272343D02*
D03*
Y269783D02*
D03*
Y267224D02*
D03*
Y264665D02*
D03*
X20669Y281791D02*
D03*
Y279232D02*
D03*
Y276673D02*
D03*
Y274114D02*
D03*
Y271555D02*
D03*
Y268996D02*
D03*
Y266437D02*
D03*
Y263878D02*
D03*
X43898Y281791D02*
D03*
Y279232D02*
D03*
Y276673D02*
D03*
Y274114D02*
D03*
Y271555D02*
D03*
Y268996D02*
D03*
Y266437D02*
D03*
Y263878D02*
D03*
D29*
X168110Y271260D02*
D03*
X96850Y273622D02*
D03*
X32283Y272835D02*
D03*
D30*
X105020Y342079D02*
D03*
Y348079D02*
D03*
D31*
X78248Y366142D02*
D03*
D32*
X87303Y343701D02*
D03*
X78248D02*
D03*
X69193D02*
D03*
D33*
X91573Y405315D02*
D03*
X87833D02*
D03*
X84093D02*
D03*
Y415945D02*
D03*
X87833D02*
D03*
X91573D02*
D03*
D34*
X178130Y355709D02*
D03*
X173130D02*
D03*
X168130D02*
D03*
X163130D02*
D03*
X158130D02*
D03*
X153130D02*
D03*
X148130D02*
D03*
X143130D02*
D03*
Y392323D02*
D03*
X148130D02*
D03*
X153130D02*
D03*
X158130D02*
D03*
X163130D02*
D03*
X168130D02*
D03*
X173130D02*
D03*
X178130D02*
D03*
D42*
X0Y234529D02*
X297521D01*
X0D02*
Y454447D01*
X297521D01*
Y234529D02*
Y454447D01*
D43*
X170610Y439626D02*
D03*
Y444626D02*
D03*
X175610Y439626D02*
D03*
Y444626D02*
D03*
X180610Y439626D02*
D03*
Y444626D02*
D03*
X185610Y439626D02*
D03*
Y444626D02*
D03*
X190610Y439626D02*
D03*
D44*
Y444626D02*
D03*
D45*
X290945Y410610D02*
D03*
Y436240D02*
D03*
D46*
X7995Y352854D02*
D03*
X17995Y347854D02*
D03*
X7995Y342854D02*
D03*
X17995Y337854D02*
D03*
X7503Y394783D02*
D03*
X17503Y389783D02*
D03*
X7503Y384783D02*
D03*
X17503Y379783D02*
D03*
X248605Y245138D02*
D03*
X238605Y250138D02*
D03*
X248605Y255138D02*
D03*
X238605Y260138D02*
D03*
X249294Y291890D02*
D03*
X239295Y296890D02*
D03*
X249294Y301890D02*
D03*
X239295Y306890D02*
D03*
X248999Y333622D02*
D03*
X238999Y338622D02*
D03*
X248999Y343622D02*
D03*
X238999Y348622D02*
D03*
D47*
X155512Y307086D02*
D03*
X169291D02*
D03*
X88583D02*
D03*
X102362D02*
D03*
X19980Y307480D02*
D03*
X33760D02*
D03*
D48*
X43898Y342520D02*
D03*
X275590Y303150D02*
D03*
Y381890D02*
D03*
M02*
